<?xml version="1.0" encoding="UTF-8" standalone="no"?>
<svg
   xmlns:dc="http://purl.org/dc/elements/1.1/"
   xmlns:cc="http://creativecommons.org/ns#"
   xmlns:rdf="http://www.w3.org/1999/02/22-rdf-syntax-ns#"
   xmlns:svg="http://www.w3.org/2000/svg"
   xmlns="http://www.w3.org/2000/svg"
   xmlns:sodipodi="http://sodipodi.sourceforge.net/DTD/sodipodi-0.dtd"
   xmlns:inkscape="http://www.inkscape.org/namespaces/inkscape"
   version="1.1"
   id="Layer_1"
   x="0px"
   y="0px"
   viewBox="0 0 200 30"
   xml:space="preserve"
   sodipodi:docname="utc.svg"
   width="200"
   height="30"
   inkscape:export-filename="/Users/stevendshelton/Downloads/library-logo.png"
   inkscape:export-xdpi="90"
   inkscape:export-ydpi="90"
   inkscape:version="1.0.1 (c497b03c, 2020-09-10)"><metadata
   id="metadata920"><rdf:RDF><cc:Work
       rdf:about=""><dc:format>image/svg+xml</dc:format><dc:type
         rdf:resource="http://purl.org/dc/dcmitype/StillImage" /><dc:title>UTC Wordmark</dc:title></cc:Work></rdf:RDF></metadata><defs
   id="defs918" /><sodipodi:namedview
   pagecolor="#ffffff"
   bordercolor="#666666"
   borderopacity="1"
   objecttolerance="10"
   gridtolerance="10"
   guidetolerance="10"
   inkscape:pageopacity="0"
   inkscape:pageshadow="2"
   inkscape:window-width="1536"
   inkscape:window-height="889"
   id="namedview916"
   showgrid="false"
   inkscape:zoom="3.28"
   inkscape:cx="129.51313"
   inkscape:cy="28.719512"
   inkscape:window-x="0"
   inkscape:window-y="23"
   inkscape:window-maximized="0"
   inkscape:current-layer="Layer_1" />
<style
   type="text/css"
   id="style833">
	.st0{fill:#FFFFFF;}
	.st1{fill:#004B83;}
	.st2{fill:#EEB310;}
</style>
<title
   id="title835">UTC Wordmark</title>
<g
   id="g961"
   transform="matrix(0.72772873,0,0,0.72772873,0.2140153,-14.574518)"><g
     id="g913"
     transform="matrix(0.43726856,0,0,0.43726856,1.095967,23.301783)">
	<path
   class="st0"
   d="m 109,17.2 c 0.1,2.3 0.2,2.6 0.7,3.5 0.5,0.9 1.4,1.2 2.6,1.3 0.5,0 0.5,0.1 0.5,0.5 0,0.3 -0.1,0.4 -0.5,0.4 -0.1,0 -0.1,0 -1.5,-0.1 -2,-0.2 -2,-0.2 -2.5,-0.2 -0.7,0 -0.9,0 -2.7,0.1 l -2,0.1 c -0.4,0 -0.6,0.1 -0.8,0.1 -0.3,0 -0.4,-0.1 -0.4,-0.4 0,-0.5 0.2,-0.5 0.7,-0.5 1.8,-0.3 2.6,-1.3 2.4,-3.6 V 5.5 C 105.5,4.2 105.3,4 104,4 101.9,4 100.6,4.2 99.9,4.6 99.2,5.1 99,5.3 98.5,7.2 98.3,8 98.1,8.2 97.9,8.2 97.7,8.2 97.5,8 97.5,7.7 97.5,7.6 97.5,7.6 97.6,7 97.7,6.6 97.7,6.6 97.8,5.3 97.9,4.8 97.9,4.4 98,4 c 0.1,-0.4 0.1,-0.6 0.1,-0.9 0,-0.5 0.2,-0.5 0.5,-0.5 0.1,0 0.4,0 0.5,0 0.3,0 0.9,0 1.6,0.1 h 3 c 2.9,0 2.9,0 3.7,0 1.7,0 5.7,-0.1 7.3,-0.2 h 1.1 c 0.7,0 0.7,0 0.9,1.7 0.1,0.7 0.1,1.1 0.1,1.2 0.1,0.4 0.1,1.1 0.1,1.3 0,0.3 -0.1,0.5 -0.4,0.5 -0.3,0 -0.4,-0.1 -0.5,-0.5 -0.2,-0.8 -0.7,-1.6 -1.3,-2.1 -0.5,-0.4 -1.2,-0.5 -2.6,-0.5 -2.9,0 -3.3,0.3 -3.3,2.1 z"
   id="path837" />
	<path
   class="st0"
   d="m 127.3,12.7 c -1.4,0 -1.6,0.3 -1.6,1.7 v 3.7 c -0.1,2.6 0.8,3.8 2.8,3.9 0.4,0 0.5,0.1 0.5,0.4 0,0.4 -0.2,0.5 -0.7,0.5 -0.2,0 -0.5,0 -1.1,-0.1 -1,-0.1 -2.5,-0.2 -3.1,-0.2 -0.5,0 -1.3,0.1 -3.5,0.3 h -0.2 c -0.3,0 -0.5,-0.2 -0.5,-0.5 0,-0.2 0.1,-0.3 0.4,-0.4 0.8,-0.1 1.6,-0.8 1.8,-1.7 0.1,-0.4 0.1,-0.5 0.1,-2.3 V 6.1 c 0.1,-1.9 -0.6,-2.6 -2.7,-3 C 119.1,3 119,3 119,2.7 c 0,-0.4 0.2,-0.5 0.5,-0.5 0.2,0 0.5,0 1,0.1 0.6,0.1 1.9,0.2 2.9,0.2 0.3,0 0.3,0 2.2,-0.2 0.5,-0.1 1.5,-0.1 1.6,-0.1 0.3,0 0.5,0.2 0.5,0.4 0,0.3 -0.1,0.4 -0.5,0.5 -1.3,0.2 -1.8,0.8 -1.7,2.2 V 9 c -0.1,1.9 0.1,2 1.6,2 h 6.9 c 1.2,0 1.4,-0.4 1.3,-2.4 V 6 c 0.1,-1.9 -0.6,-2.6 -2.7,-2.9 -0.4,-0.1 -0.5,-0.2 -0.5,-0.4 0,-0.4 0.2,-0.5 0.5,-0.5 0.2,0 0.5,0 1,0.1 0.7,0.1 1.9,0.2 3.1,0.2 0.2,0 0.9,-0.1 2,-0.2 0.5,-0.1 1.4,-0.1 1.6,-0.1 0.4,0 0.5,0.1 0.5,0.5 0,0.2 -0.1,0.4 -0.5,0.4 -1.3,0.2 -1.8,0.8 -1.7,2.2 V 18 c -0.1,2.6 0.8,3.9 2.8,3.9 0.5,0 0.5,0.1 0.5,0.4 0,0.4 -0.2,0.5 -0.7,0.5 -0.2,0 -0.5,0 -1.1,-0.1 -1,-0.1 -2.5,-0.2 -3.1,-0.2 -0.5,0 -1.3,0.1 -3.5,0.3 h -0.2 c -0.3,0 -0.5,-0.2 -0.5,-0.5 0,-0.2 0.1,-0.3 0.4,-0.4 0.8,-0.1 1.6,-0.8 1.8,-1.7 0.1,-0.4 0.1,-0.5 0.1,-2.3 v -3.2 c 0,-1.9 -0.1,-2.1 -1.3,-2.1 h -6.9 v 0.1 z"
   id="path839" />
	<path
   class="st0"
   d="m 151.6,9.1 c 0,1.9 0.2,2.1 1.2,2.1 h 1.1 1.3 c 1.2,0 1.8,-0.6 2.6,-2.4 0.1,-0.3 0.2,-0.3 0.5,-0.3 0.2,0 0.4,0.1 0.4,0.4 0,0.1 0,0.4 -0.1,0.7 0,0.3 0,0.5 0,0.7 0,0.2 0,0.3 0.2,2.2 0.1,0.8 0.1,1.9 0.1,2.7 0,0.3 -0.1,0.4 -0.3,0.4 -0.3,0 -0.4,-0.2 -0.5,-0.5 -0.5,-2.3 -1,-2.6 -4.6,-2.5 -1,0 -1.4,0.1 -1.5,0.5 -0.1,0.5 -0.2,0.7 -0.2,2.9 v 1.4 c 0,1.2 0.2,2.6 0.4,3 0.4,0.9 0.7,1.2 1.6,1.2 2.7,0 4.7,-0.5 6.3,-1.7 0.6,-0.5 1.3,-1.3 1.6,-1.9 0.1,-0.1 0.1,-0.2 0.2,-0.2 0.3,0 0.4,0.2 0.4,0.4 0,1 -0.5,2.5 -1.1,3.3 -0.9,1.3 -2,1.7 -3.9,1.7 -0.9,0 -1.1,0 -3.8,-0.3 -0.6,-0.1 -1.5,-0.1 -2.5,-0.1 -1.1,0 -1.2,0 -3.4,0.1 h -0.9 c -0.3,0 -0.4,-0.1 -0.4,-0.4 0,-0.2 0.1,-0.3 0.4,-0.4 1.4,-0.4 1.8,-1.4 1.8,-4.1 V 6.5 c 0,-2.3 -0.5,-2.7 -2.7,-3.1 -0.3,0 -0.4,-0.1 -0.4,-0.5 0,-0.2 0.2,-0.4 0.5,-0.4 h 0.5 0.7 c 2.6,0.1 3.9,0.1 7.6,0.1 1.4,0 4.7,-0.1 5.5,-0.1 h 0.3 c 0.3,0 0.4,0.1 0.4,0.5 0,0.3 0.1,0.7 0.1,1.2 0.1,1.4 0.1,1.5 0.1,1.8 0,0.7 -0.3,1.2 -0.5,1.2 -0.2,0 -0.3,-0.1 -0.3,-0.6 0,-1.9 -1.5,-2.8 -4.7,-2.7 H 154 c -1.9,0 -2.1,0.2 -2.1,2.2 v 3.1 h -0.3 z"
   id="path841" />
	<path
   class="st0"
   d="M 177,5.7 C 177,4 176.6,3.5 174.4,3.1 173.9,3 173.9,2.9 173.9,2.6 c 0,-0.3 0.1,-0.4 0.5,-0.4 0.1,0 0.5,0 0.6,0.1 1.6,0.2 2,0.2 2.9,0.2 0.9,0 2,-0.1 3.2,-0.2 0.5,0 0.8,-0.1 1,-0.1 0.6,0 0.7,0.1 0.7,0.5 0,0.3 -0.1,0.4 -0.6,0.5 -0.7,0.1 -0.9,0.2 -1.2,0.6 -0.2,0.3 -0.3,0.8 -0.4,1.6 -0.1,1.4 -0.2,2.6 -0.3,3.7 0,7.2 0.1,7.4 0.7,8.8 1,2.1 3.2,3.4 5.9,3.4 1.4,0 2.9,-0.5 4,-1.3 1.6,-1.2 2.4,-3 2.6,-6.8 0.1,-1.3 0.1,-2.5 0.1,-4.3 0,-2.3 -0.1,-3.4 -0.3,-4 C 193,3.8 191.9,3 190.6,3 c -0.5,0 -0.5,-0.1 -0.5,-0.5 0,-0.3 0.1,-0.4 0.3,-0.4 0.1,0 0.2,0 0.4,0 0.3,0 2.4,0.2 2.9,0.2 0.5,0 1.6,-0.1 2.6,-0.2 0.2,0 0.4,0 0.5,0 0.3,0 0.5,0.1 0.5,0.4 0,0.3 0,0.3 -0.9,0.5 -0.8,0.1 -1.2,0.8 -1.2,2.4 v 1.5 c 0,1.3 -0.1,4.6 -0.2,6.5 -0.2,3.5 -1.1,5.9 -2.6,7.4 -1.6,1.5 -3.8,2.3 -6.7,2.3 -2.7,0 -5.1,-0.7 -6.4,-1.9 -1.5,-1.4 -2.2,-3.7 -2.2,-7.2 l 0.2,-5.5 z"
   id="path843" />
	<path
   class="st0"
   d="m 216.4,14.6 c 1.2,1.4 1.6,1.6 1.8,1.6 0.2,0 0.3,-0.2 0.4,-0.4 0,-0.3 0.2,-5.2 0.2,-6.9 0,-4.5 -0.7,-5.7 -3.5,-5.9 -0.4,0 -0.5,-0.1 -0.5,-0.4 0,-0.3 0.1,-0.4 0.5,-0.4 0.5,0 0.6,0 1.7,0.2 0.5,0.1 0.9,0.1 1.3,0.1 0.6,0 1.9,-0.1 3.3,-0.3 0.2,0 0.4,0 0.5,0 0.3,0 0.5,0.1 0.5,0.4 0,0.3 -0.1,0.4 -0.5,0.5 -1.4,0.3 -2,1.6 -1.9,4.1 l -0.2,9.2 c -0.1,1.7 -0.1,1.8 -0.1,2.3 0,1.4 0,2.8 0.1,3.4 v 0.2 c 0,0.3 -0.1,0.4 -0.3,0.4 -0.2,0 -0.4,-0.2 -0.5,-0.4 L 205.7,7.4 C 205.3,7 205.3,7 205.2,7 c -0.3,0 -0.4,0.3 -0.4,1.1 v 5.7 c 0.1,6.9 0.4,7.6 3.3,8 0.4,0 0.5,0.2 0.5,0.4 0,0.3 -0.2,0.5 -0.5,0.5 -0.1,0 -0.4,0 -0.6,-0.1 -0.7,-0.1 -2,-0.2 -2.7,-0.2 -0.7,0 -2.1,0.1 -2.6,0.2 -0.3,0.1 -0.6,0.1 -0.7,0.1 -0.3,0 -0.4,-0.1 -0.4,-0.4 0,-0.2 0.1,-0.3 0.5,-0.4 1.9,-0.8 2,-1.1 2.2,-7.6 V 12.6 8 c 0.1,-2.8 -1.2,-4.7 -3.4,-4.7 -0.4,0 -0.5,-0.1 -0.5,-0.4 0,-0.3 0.2,-0.5 0.5,-0.5 h 1 c 1.2,0 2.2,0 3.1,-0.1 0.3,0 0.6,-0.1 0.8,-0.1 0.5,0 0.6,0.1 1.6,1.1 0.2,0.2 0.2,0.2 1.1,1.4 0.6,0.7 0.8,1 0.9,1.1 z"
   id="path845" />
	<path
   class="st0"
   d="m 231.7,17.5 c 0,3.2 0.6,4.2 2.8,4.4 0.5,0 0.7,0.1 0.7,0.5 0,0.4 -0.2,0.5 -0.9,0.5 -0.3,0 -0.7,0 -1.2,-0.1 -1.6,-0.2 -2.1,-0.2 -3.2,-0.2 -0.9,0 -1.6,0.1 -2.3,0.2 -0.5,0.1 -0.9,0.2 -1.1,0.2 -0.3,0 -0.5,-0.2 -0.5,-0.5 0,-0.2 0.1,-0.3 0.5,-0.3 0.6,-0.1 1.4,-0.7 1.6,-1.3 0.2,-0.6 0.2,-0.7 0.2,-2.8 V 17.3 6.9 c 0.1,-2.4 -0.4,-3 -2.2,-3.3 -1,-0.2 -1.2,-0.3 -1.2,-0.6 0,-0.3 0.1,-0.4 0.4,-0.4 0.2,0 0.5,0.1 0.8,0.1 0.4,0.1 1,0.1 1.8,0.1 0.7,0 1.4,0 3.1,-0.2 1,-0.1 1.6,-0.1 2.4,-0.1 0.4,0 0.5,0.1 0.5,0.4 0,0.4 -0.1,0.5 -0.5,0.5 -1.6,0.3 -1.7,0.5 -1.7,2.8 z"
   id="path847" />
	<path
   class="st0"
   d="m 248.4,17.9 c 0.2,0.5 0.3,0.5 0.4,0.5 0.2,0 0.2,-0.1 0.4,-0.5 l 3.3,-7.4 c 1,-2.2 1.6,-4.2 1.6,-5.2 0,-0.6 -0.4,-1.4 -0.8,-1.7 C 252.9,3.3 252.5,3.1 251.7,3.1 251.2,3 251,2.9 251,2.6 c 0,-0.3 0.1,-0.4 0.4,-0.4 0.2,0 0.2,0 2.4,0.1 0.7,0 1.2,0.1 1.6,0.1 0.6,0 1.4,-0.1 2.3,-0.2 0.5,-0.1 0.5,-0.1 0.6,-0.1 0.2,0 0.3,0.2 0.3,0.4 0,0.3 -0.1,0.4 -0.5,0.5 -1.5,0.4 -1.5,0.4 -5.1,8.9 l -3.8,8.5 c -0.5,1 -0.8,1.7 -0.9,1.9 -0.2,0.5 -0.4,0.6 -0.7,0.6 -0.3,0 -0.3,0 -0.8,-1.1 l -0.4,-0.9 -3.5,-7.9 c -0.4,-0.7 -0.6,-1.6 -1,-2.3 C 241.6,10.1 241.2,9 240.7,7.8 239.4,4.3 239,3.6 237.5,3.1 237,3 236.9,2.8 236.9,2.6 c 0,-0.3 0.1,-0.4 0.5,-0.4 h 0.5 c 0.3,0 3.5,0.2 4,0.2 0.8,0 0.9,0 1.8,-0.1 0.5,0 1.1,-0.1 1.4,-0.1 0.3,0 0.4,0.1 0.4,0.5 0,0.3 -0.2,0.4 -0.6,0.5 -0.7,0.2 -1.1,0.5 -1.1,1.3 0,1 0.4,2.2 1.6,5.3 z"
   id="path849" />
	<path
   class="st0"
   d="m 267,9.1 c 0,1.9 0.2,2.1 1.2,2.1 h 1.1 1.3 c 1.2,0 1.8,-0.6 2.6,-2.4 0.1,-0.3 0.2,-0.3 0.5,-0.3 0.2,0 0.4,0.1 0.4,0.4 0,0.1 0,0.4 -0.1,0.7 0,0.3 0,0.5 0,0.7 0,0.2 0,0.3 0.2,2.2 0.1,0.8 0.1,1.9 0.1,2.7 0,0.3 -0.1,0.4 -0.3,0.4 -0.3,0 -0.4,-0.2 -0.5,-0.5 -0.5,-2.3 -1,-2.6 -4.6,-2.5 -1,0 -1.4,0.1 -1.5,0.5 -0.1,0.5 -0.2,0.7 -0.2,2.9 v 1.4 c 0,1.2 0.2,2.6 0.4,3 0.4,0.9 0.7,1.2 1.6,1.2 2.7,0 4.7,-0.5 6.3,-1.7 0.6,-0.5 1.3,-1.3 1.6,-1.9 0.1,-0.1 0.1,-0.2 0.2,-0.2 0.3,0 0.4,0.2 0.4,0.4 0,1 -0.5,2.5 -1.1,3.3 -0.9,1.3 -2,1.7 -3.9,1.7 -0.9,0 -1.1,0 -3.8,-0.3 -0.6,-0.1 -1.5,-0.1 -2.5,-0.1 -1.1,0 -1.2,0 -3.4,0.1 h -0.9 c -0.3,0 -0.4,-0.1 -0.4,-0.4 0,-0.2 0.1,-0.3 0.4,-0.4 1.4,-0.4 1.8,-1.4 1.8,-4.1 V 6.5 c 0,-2.3 -0.5,-2.7 -2.7,-3.1 -0.3,0 -0.4,-0.1 -0.4,-0.5 0,-0.2 0.2,-0.4 0.5,-0.4 h 0.5 0.7 c 2.6,0.1 3.9,0.1 7.6,0.1 1.4,0 4.7,-0.1 5.5,-0.1 h 0.3 c 0.3,0 0.4,0.1 0.4,0.5 0,0.3 0.1,0.7 0.1,1.2 0.1,1.4 0.1,1.5 0.1,1.8 0,0.7 -0.3,1.2 -0.5,1.2 -0.2,0 -0.3,-0.1 -0.3,-0.6 0,-1.9 -1.5,-2.8 -4.7,-2.7 h -1.7 C 267.2,3.8 267,4 267,6 Z"
   id="path851" />
	<path
   class="st0"
   d="m 286.7,10 c 0,1.2 0,1.2 0.2,1.5 0.2,0.4 0.5,0.5 1.2,0.5 3.7,0 3.8,0 4.6,-0.7 0.7,-0.6 1.1,-1.5 1.1,-2.6 0,-3 -2.2,-5.2 -5.1,-5.2 -1.4,0 -1.8,0.5 -1.8,1.9 z m 0,7 c 0,3.7 0.5,4.7 2.6,4.9 0.5,0 0.6,0.2 0.6,0.5 0,0.3 -0.1,0.4 -0.5,0.4 h -0.6 c -0.9,-0.1 -1.7,-0.1 -2.5,-0.1 -1,0 -1.6,0 -3,0.2 -0.8,0.1 -1.4,0.1 -1.6,0.1 -0.4,0 -0.5,-0.1 -0.5,-0.5 0,-0.3 0,-0.3 0.3,-0.4 1.6,-0.5 1.8,-1 1.8,-3.8 V 17.8 7 c 0.1,-2.4 -0.5,-3.2 -2.8,-3.6 -0.5,-0.1 -0.6,-0.2 -0.6,-0.5 0,-0.3 0.1,-0.4 0.4,-0.4 0.1,0 0.4,0 0.5,0 0.6,0.1 1.7,0.1 2.4,0.1 0.9,0 2.6,-0.1 3.7,-0.2 1.6,-0.1 2.8,-0.2 3.5,-0.2 3.7,0 6.5,2.3 6.5,5.4 0,2 -1.1,3.6 -3.1,4.5 -0.2,0.1 -0.3,0.2 -0.3,0.3 0,0.1 0.1,0.2 0.2,0.4 0,0.1 0.2,0.4 0.4,0.7 0.5,0.7 1,1.7 1.3,2.4 l 1.6,2.6 c 1,1.8 1.7,2.5 2.8,2.5 0.2,0 0.5,0 0.6,-0.1 0.2,0 0.3,-0.1 0.4,-0.1 0.2,0 0.3,0.2 0.3,0.4 0,0.5 -2.1,1.6 -3.3,1.6 -1.1,0 -2.1,-0.5 -3,-1.6 -0.6,-0.8 -2,-3.2 -3.1,-5.5 -0.8,-1.7 -1.1,-2 -1.7,-2.3 -0.5,-0.2 -0.8,-0.2 -2.3,-0.2 -0.8,0 -0.8,0.1 -0.8,1.2 z"
   id="path853" />
	<path
   class="st0"
   d="m 315.4,4.5 c 0,0.5 0,0.5 0.2,2.1 0.1,0.6 0.2,1.5 0.2,1.7 0,0.4 -0.1,0.5 -0.4,0.5 -0.2,0 -0.4,-0.2 -0.5,-0.5 -0.6,-2.8 -3.2,-5.1 -5.8,-5.1 -1.7,0 -3.3,1.5 -3.3,3 0,0.8 0.5,1.6 1.1,2.2 0.5,0.4 1,0.6 3.3,1.6 2.4,1 3.5,1.6 4.3,2.5 1,1.1 1.6,2.6 1.6,4.3 0,1.7 -0.6,3.2 -1.8,4.5 -1.2,1.2 -2.8,1.9 -4.3,1.9 -0.7,0 -1.9,-0.3 -3.3,-0.7 -1,-0.4 -1.1,-0.4 -1.6,-0.5 -0.6,-0.2 -0.6,-0.2 -0.8,-0.3 -0.1,-0.1 -0.2,-0.2 -0.2,-0.8 0,-0.4 -0.3,-1.3 -0.5,-2 -0.5,-2 -0.5,-2 -0.5,-2.6 0,-0.5 0.2,-0.7 0.5,-0.7 0.2,0 0.3,0.1 0.3,0.4 1,3.4 3.7,6 6.2,6 2.1,0 3.9,-1.8 3.9,-3.7 0,-1 -0.5,-1.9 -1.2,-2.5 -0.5,-0.4 -0.5,-0.4 -3.8,-1.8 -2.5,-1.1 -3.3,-1.6 -4.2,-2.6 -0.8,-0.9 -1.3,-2.1 -1.3,-3.6 0,-3.2 2.5,-5.7 5.6,-5.7 1.2,0 1.6,0.1 3.7,0.9 0.5,0.2 0.7,0.3 0.9,0.3 0.2,0 0.2,0 1,-0.4 0.1,0 0.2,-0.1 0.3,-0.1 0.3,0 0.3,0.1 0.3,0.5 z"
   id="path855" />
	<path
   class="st0"
   d="m 326.3,17.5 c 0,3.2 0.6,4.2 2.8,4.4 0.5,0 0.7,0.1 0.7,0.5 0,0.4 -0.2,0.5 -0.9,0.5 -0.3,0 -0.7,0 -1.2,-0.1 -1.6,-0.2 -2.1,-0.2 -3.2,-0.2 -0.9,0 -1.6,0.1 -2.3,0.2 -0.5,0.1 -0.9,0.2 -1.1,0.2 -0.3,0 -0.5,-0.2 -0.5,-0.5 0,-0.2 0.1,-0.3 0.5,-0.3 0.6,-0.1 1.4,-0.7 1.6,-1.3 0.2,-0.6 0.2,-0.7 0.2,-2.8 V 17.3 6.9 c 0.1,-2.4 -0.4,-3 -2.2,-3.3 -1,-0.2 -1.2,-0.3 -1.2,-0.6 0,-0.3 0.1,-0.4 0.4,-0.4 0.2,0 0.5,0.1 0.8,0.1 0.4,0.1 1,0.1 1.8,0.1 0.7,0 1.4,0 3.1,-0.2 1,-0.1 1.6,-0.1 2.4,-0.1 0.4,0 0.5,0.1 0.5,0.4 0,0.4 -0.1,0.5 -0.5,0.5 -1.6,0.3 -1.7,0.5 -1.7,2.8 z"
   id="path857" />
	<path
   class="st0"
   d="m 343.3,17.2 c 0.1,2.3 0.2,2.6 0.7,3.5 0.5,0.8 1.4,1.2 2.6,1.3 0.5,0 0.5,0.1 0.5,0.5 0,0.3 -0.1,0.4 -0.5,0.4 -0.1,0 -0.1,0 -1.5,-0.1 -2,-0.2 -2,-0.2 -2.5,-0.2 -0.7,0 -0.9,0 -2.7,0.1 l -2,0.1 c -0.4,0 -0.6,0.1 -0.8,0.1 -0.3,0 -0.4,-0.1 -0.4,-0.4 0,-0.5 0.2,-0.5 0.7,-0.5 1.8,-0.3 2.6,-1.3 2.4,-3.6 V 5.5 c 0,-1.3 -0.2,-1.5 -1.5,-1.5 -2.1,0 -3.4,0.2 -4.1,0.6 -0.7,0.4 -0.9,0.7 -1.4,2.6 -0.2,0.8 -0.4,1 -0.6,1 -0.3,0 -0.5,-0.2 -0.5,-0.5 0,-0.1 0,-0.1 0.1,-0.7 0.1,-0.4 0.1,-0.4 0.2,-1.7 0.1,-0.5 0.1,-0.9 0.2,-1.3 0.1,-0.4 0.1,-0.6 0.1,-0.9 0,-0.5 0.2,-0.5 0.5,-0.5 0.1,0 0.4,0 0.5,0 0.3,0 0.9,0 1.6,0.1 h 3 c 2.9,0 2.9,0 3.7,0 1.7,0 5.7,-0.1 7.3,-0.2 h 1.1 c 0.7,0 0.7,0 0.9,1.7 0.1,0.7 0.1,1.1 0.1,1.2 0.1,0.4 0.1,1.1 0.1,1.3 0,0.3 -0.1,0.5 -0.4,0.5 -0.3,0 -0.4,-0.1 -0.5,-0.5 -0.2,-0.8 -0.7,-1.6 -1.3,-2.1 -0.5,-0.4 -1.2,-0.5 -2.6,-0.5 -2.9,0 -3.3,0.3 -3.3,2.1 z"
   id="path859" />
	<path
   class="st0"
   d="m 364.2,18.6 c -0.1,2.6 0.4,3 3,3.4 0.4,0 0.5,0.1 0.5,0.5 0,0.4 -0.2,0.4 -0.7,0.4 -0.3,0 -0.3,0 -2.7,-0.2 -0.4,0 -1,-0.1 -1.9,-0.1 -1.6,0 -2.7,0.1 -3.5,0.2 -0.6,0.1 -0.8,0.1 -0.9,0.1 -0.2,0 -0.3,-0.1 -0.3,-0.4 0,-0.3 0.1,-0.4 0.4,-0.5 2.3,-0.5 2.8,-1.1 2.8,-3.8 v -2.8 c 0,-0.9 -0.1,-1.2 -0.6,-2.1 -0.5,-0.8 -1.1,-1.8 -1.7,-3 -0.7,-1.5 -1.5,-2.8 -2.3,-4.2 -1,-1.8 -1.8,-2.5 -3.1,-2.7 -0.5,-0.1 -0.5,-0.2 -0.5,-0.4 0,-0.4 0.2,-0.5 0.5,-0.5 0.2,0 0.6,0 2.4,0.2 0.5,0 1,0.1 1.6,0.1 0.8,0 1.6,0 2.5,-0.1 0.7,-0.1 1,-0.1 1.3,-0.1 0.5,0 0.6,0.1 0.6,0.4 0,0.2 -0.1,0.4 -0.5,0.5 -0.7,0.2 -1.2,0.5 -1.2,1 0,0.5 0.2,1 1.1,2.6 0.3,0.5 1.3,2.6 2,3.9 0.4,0.7 0.6,1 0.9,1 0.4,0 0.6,-0.4 1.3,-1.6 0.6,-1.2 0.9,-1.7 1,-1.8 1.3,-2.4 1.6,-3.1 1.6,-3.7 0,-0.9 -1.1,-1.7 -2.4,-1.8 -0.4,0 -0.5,-0.1 -0.5,-0.4 0,-0.4 0.1,-0.5 0.5,-0.5 0.3,0 0.3,0 1.6,0.2 0.4,0.1 0.8,0.1 1.5,0.1 0.5,0 0.5,0 2.4,-0.1 0.2,0 0.5,0 1,0 h 0.2 c 0.3,0 0.4,0.1 0.4,0.4 0,0.3 -0.2,0.4 -0.5,0.5 -1.7,0.6 -2.2,1.1 -3.5,3.7 -1,2 -2.6,4.7 -3.5,6.1 -0.5,0.7 -0.5,0.7 -0.5,1.7 v 3.7 h -0.3 z"
   id="path861" />
	<path
   class="st0"
   d="m 387.7,11.4 c 0,6.3 3,10.6 7.6,10.6 1.9,0 3.7,-0.9 4.8,-2.3 1.1,-1.6 1.8,-4 1.8,-6.5 0,-2.8 -1,-5.7 -2.6,-7.7 C 398,4.1 396,3.2 394,3.2 c -3.8,0.1 -6.3,3.1 -6.3,8.2 m 17.7,0.5 c 0,3.4 -1.4,6.7 -3.6,8.8 -1.7,1.6 -4.3,2.6 -7.2,2.6 -6.4,0 -10.5,-4 -10.5,-10.3 0,-3 1.3,-6.1 3.3,-7.9 2,-1.8 4.7,-2.7 7.8,-2.7 6.1,-0.3 10.2,3.6 10.2,9.5"
   id="path863" />
	<path
   class="st0"
   d="m 415.4,9.8 c 0,1.1 0.2,1.4 1.1,1.4 h 0.5 c 3.1,0 3.6,-0.3 4.4,-2.4 0.1,-0.3 0.2,-0.4 0.4,-0.4 0.4,0 0.4,0.1 0.4,0.4 0,0 0,0.2 0,0.4 v 0.5 c 0,0.7 0,1.3 0.3,3.7 0,0.5 0.1,1.6 0.1,1.6 0,0.2 -0.1,0.3 -0.4,0.3 -0.3,0 -0.4,-0.1 -0.4,-0.4 -0.4,-2 -1.1,-2.6 -3.4,-2.6 -1.6,0 -2.3,0.1 -2.6,0.3 -0.4,0.2 -0.4,0.2 -0.4,2.6 v 0.7 1.7 c 0.1,3 0.8,3.9 3,4.1 0.4,0 0.5,0.2 0.5,0.4 0,0.3 -0.1,0.4 -0.3,0.4 l -3,-0.1 H 414 c -0.7,0 -1.4,0 -1.9,0.1 -0.6,0.1 -1.3,0.2 -1.5,0.2 -0.4,0 -0.5,-0.1 -0.5,-0.4 0,-0.3 0,-0.3 0.5,-0.4 1.2,-0.4 1.6,-1.4 1.5,-3.5 V 6.5 c 0,-2.3 -0.5,-2.8 -2.7,-3.1 -0.3,0 -0.4,-0.1 -0.4,-0.4 0,-0.3 0.1,-0.4 0.5,-0.4 0.1,0 0.5,0 0.7,0.1 0.6,0.1 1,0.1 1.7,0.1 h 2.7 3.8 c 0.8,0 4,-0.2 5.1,-0.2 h 0.1 c 0.4,0 0.4,0 0.5,1.8 0.2,1.5 0.2,1.5 0.2,1.7 0,0.8 -0.2,1.2 -0.5,1.2 -0.2,0 -0.3,-0.1 -0.3,-0.4 -0.1,-1.1 -0.1,-1.2 -0.4,-1.6 -0.6,-1 -1.6,-1.3 -3.3,-1.4 h -2.3 c -1,0 -1.5,0.1 -1.7,0.4 -0.3,0.3 -0.3,0.4 -0.3,1.6 v 3.9 z"
   id="path865" />
	<path
   class="st0"
   d="m 447.6,17.2 c 0.1,2.3 0.2,2.6 0.7,3.5 0.5,0.9 1.4,1.2 2.6,1.3 0.5,0 0.5,0.1 0.5,0.5 0,0.3 -0.1,0.4 -0.5,0.4 -0.1,0 -0.1,0 -1.5,-0.1 -2,-0.2 -2,-0.2 -2.5,-0.2 -0.7,0 -0.9,0 -2.7,0.1 l -2,0.1 c -0.4,0 -0.6,0.1 -0.8,0.1 -0.3,0 -0.4,-0.1 -0.4,-0.4 0,-0.5 0.2,-0.5 0.7,-0.5 1.8,-0.3 2.6,-1.3 2.4,-3.6 V 5.5 c 0,-1.3 -0.2,-1.5 -1.5,-1.5 -2.1,0 -3.4,0.2 -4.1,0.6 -0.7,0.4 -0.9,0.7 -1.4,2.6 -0.2,0.8 -0.4,1 -0.6,1 -0.2,0 -0.5,-0.2 -0.5,-0.5 0,-0.1 0,-0.1 0.1,-0.7 0.1,-0.4 0.1,-0.4 0.2,-1.7 0.1,-0.5 0.1,-0.9 0.2,-1.3 0.1,-0.4 0.1,-0.6 0.1,-0.9 0,-0.5 0.2,-0.5 0.5,-0.5 0.1,0 0.4,0 0.5,0 0.3,0 0.9,0 1.6,0.1 h 3 c 2.9,0 2.9,0 3.7,0 1.7,0 5.7,-0.1 7.3,-0.2 h 1.1 c 0.7,0 0.7,0 0.9,1.7 0.1,0.7 0.1,1.1 0.1,1.2 0.1,0.4 0.1,1.1 0.1,1.3 0,0.3 -0.1,0.5 -0.4,0.5 -0.3,0 -0.4,-0.1 -0.5,-0.5 -0.2,-0.8 -0.7,-1.6 -1.3,-2.1 -0.5,-0.4 -1.2,-0.5 -2.6,-0.5 -2.9,0 -3.3,0.3 -3.3,2.1 z"
   id="path867" />
	<path
   class="st0"
   d="m 464.5,9.1 c 0,1.9 0.2,2.1 1.2,2.1 h 1.1 1.3 c 1.2,0 1.8,-0.6 2.6,-2.4 0.1,-0.3 0.2,-0.3 0.5,-0.3 0.2,0 0.4,0.1 0.4,0.4 0,0.1 0,0.4 -0.1,0.7 0,0.3 0,0.5 0,0.7 0,0.2 0,0.3 0.2,2.2 0.1,0.8 0.1,1.9 0.1,2.7 0,0.3 -0.1,0.4 -0.3,0.4 -0.3,0 -0.4,-0.2 -0.5,-0.5 -0.5,-2.3 -1,-2.6 -4.6,-2.5 -1,0 -1.4,0.1 -1.5,0.5 -0.1,0.5 -0.2,0.7 -0.2,2.9 v 1.4 c 0,1.2 0.2,2.6 0.4,3 0.4,0.9 0.7,1.2 1.6,1.2 2.7,0 4.7,-0.5 6.3,-1.7 0.6,-0.5 1.3,-1.3 1.6,-1.9 0.1,-0.1 0.1,-0.2 0.2,-0.2 0.3,0 0.4,0.2 0.4,0.4 0,1 -0.5,2.5 -1.1,3.3 -0.9,1.3 -2,1.7 -3.9,1.7 -0.9,0 -1.1,0 -3.8,-0.3 -0.6,-0.1 -1.5,-0.1 -2.5,-0.1 -1.1,0 -1.2,0 -3.4,0.1 h -0.9 c -0.3,0 -0.4,-0.1 -0.4,-0.4 0,-0.2 0.1,-0.3 0.4,-0.4 1.4,-0.4 1.8,-1.4 1.8,-4.1 V 6.5 c 0,-2.3 -0.5,-2.7 -2.7,-3.1 -0.3,0 -0.4,-0.1 -0.4,-0.5 0,-0.2 0.2,-0.4 0.5,-0.4 h 0.5 0.7 c 2.6,0.1 3.9,0.1 7.6,0.1 1.4,0 4.7,-0.1 5.5,-0.1 h 0.3 c 0.3,0 0.4,0.1 0.4,0.5 0,0.3 0.1,0.7 0.1,1.2 0.1,1.4 0.1,1.5 0.1,1.8 0,0.7 -0.3,1.2 -0.5,1.2 -0.2,0 -0.3,-0.1 -0.3,-0.6 0,-1.9 -1.5,-2.8 -4.7,-2.7 h -1.4 c -1.9,0 -2.1,0.2 -2.1,2.2 v 3.1 h -0.5 z"
   id="path869" />
	<path
   class="st0"
   d="m 493.8,14.6 c 1.2,1.4 1.6,1.6 1.8,1.6 0.2,0 0.3,-0.2 0.4,-0.4 0,-0.3 0.2,-5.2 0.2,-6.9 0,-4.5 -0.7,-5.7 -3.5,-5.9 -0.4,0 -0.5,-0.1 -0.5,-0.4 0,-0.3 0.1,-0.4 0.5,-0.4 0.5,0 0.6,0 1.7,0.2 0.5,0.1 0.9,0.1 1.3,0.1 0.6,0 1.9,-0.1 3.3,-0.3 0.2,0 0.4,0 0.5,0 0.3,0 0.5,0.1 0.5,0.4 0,0.3 -0.1,0.4 -0.5,0.5 -1.4,0.3 -2,1.6 -1.9,4.1 l -0.2,9.2 c -0.1,1.7 -0.1,1.8 -0.1,2.3 0,1.4 0,2.8 0.1,3.4 v 0.2 c 0,0.3 -0.1,0.4 -0.3,0.4 -0.2,0 -0.4,-0.2 -0.5,-0.4 L 483,7.4 C 482.6,7 482.6,7 482.5,7 c -0.3,0 -0.4,0.3 -0.4,1.1 v 5.7 c 0.1,6.9 0.4,7.6 3.3,8 0.4,0 0.5,0.2 0.5,0.4 0,0.3 -0.2,0.5 -0.5,0.5 -0.1,0 -0.4,0 -0.6,-0.1 -0.7,-0.1 -2,-0.2 -2.7,-0.2 -0.7,0 -2.1,0.1 -2.6,0.2 -0.3,0.1 -0.6,0.1 -0.7,0.1 -0.3,0 -0.4,-0.1 -0.4,-0.4 0,-0.2 0.1,-0.3 0.5,-0.4 1.9,-0.8 2,-1.1 2.2,-7.6 V 12.6 8 c 0.1,-2.8 -1.2,-4.7 -3.4,-4.7 -0.4,0 -0.5,-0.1 -0.5,-0.4 0,-0.3 0.2,-0.5 0.5,-0.5 h 1 c 1.2,0 2.2,0 3.1,-0.1 0.3,0 0.6,-0.1 0.8,-0.1 0.5,0 0.6,0.1 1.6,1.1 0.2,0.2 0.2,0.2 1.1,1.4 0.6,0.7 0.8,1 0.9,1.1 z"
   id="path871" />
	<path
   class="st0"
   d="m 518.6,14.6 c 1.2,1.4 1.6,1.6 1.8,1.6 0.2,0 0.3,-0.2 0.4,-0.4 0,-0.3 0.2,-5.2 0.2,-6.9 0,-4.5 -0.7,-5.7 -3.5,-5.9 -0.4,0 -0.5,-0.1 -0.5,-0.4 0,-0.3 0.1,-0.4 0.5,-0.4 0.5,0 0.6,0 1.7,0.2 0.5,0.1 0.9,0.1 1.3,0.1 0.6,0 1.9,-0.1 3.3,-0.3 0.2,0 0.4,0 0.5,0 0.3,0 0.5,0.1 0.5,0.4 0,0.3 -0.1,0.4 -0.5,0.5 -1.4,0.3 -2,1.6 -1.9,4.1 l -0.2,9.2 c -0.1,1.7 -0.1,1.8 -0.1,2.3 0,1.4 0,2.8 0.1,3.4 v 0.2 c 0,0.3 -0.1,0.4 -0.3,0.4 -0.2,0 -0.4,-0.2 -0.5,-0.4 L 507.8,7.4 C 507.5,7 507.5,7 507.4,7 507.1,7 507,7.3 507,8.1 v 5.7 c 0.1,6.9 0.4,7.6 3.3,8 0.4,0 0.5,0.2 0.5,0.4 0,0.3 -0.2,0.5 -0.5,0.5 -0.1,0 -0.4,0 -0.6,-0.1 -0.7,-0.1 -2,-0.2 -2.7,-0.2 -0.7,0 -2.1,0.1 -2.6,0.2 -0.3,0.1 -0.6,0.1 -0.7,0.1 -0.3,0 -0.4,-0.1 -0.4,-0.4 0,-0.2 0.1,-0.3 0.5,-0.4 1.9,-0.8 2,-1.1 2.2,-7.6 V 12.6 8 c 0.1,-2.8 -1.2,-4.7 -3.4,-4.7 -0.4,0 -0.5,-0.1 -0.5,-0.4 0,-0.3 0.2,-0.5 0.5,-0.5 h 1 c 1.2,0 2.2,0 3.1,-0.1 0.3,0 0.6,-0.1 0.8,-0.1 0.5,0 0.6,0.1 1.6,1.1 0.2,0.2 0.2,0.2 1.1,1.4 0.6,0.7 0.8,1 0.9,1.1 z"
   id="path873" />
	<path
   class="st0"
   d="m 533.9,9.1 c 0,1.9 0.2,2.1 1.2,2.1 h 1.1 1.3 c 1.2,0 1.8,-0.6 2.6,-2.4 0.1,-0.3 0.2,-0.3 0.5,-0.3 0.2,0 0.4,0.1 0.4,0.4 0,0.1 0,0.4 -0.1,0.7 0,0.3 0,0.5 0,0.7 0,0.2 0,0.3 0.2,2.2 0.1,0.8 0.1,1.9 0.1,2.7 0,0.3 -0.1,0.4 -0.3,0.4 -0.3,0 -0.4,-0.2 -0.5,-0.5 -0.5,-2.3 -1,-2.6 -4.6,-2.5 -1,0 -1.4,0.1 -1.5,0.5 -0.1,0.5 -0.2,0.7 -0.2,2.9 v 1.4 c 0,1.2 0.2,2.6 0.4,3 0.4,0.9 0.7,1.2 1.6,1.2 2.7,0 4.7,-0.5 6.3,-1.7 0.6,-0.5 1.3,-1.3 1.6,-1.9 0.1,-0.1 0.1,-0.2 0.2,-0.2 0.3,0 0.4,0.2 0.4,0.4 0,1 -0.5,2.5 -1.1,3.3 -0.9,1.3 -2,1.7 -3.9,1.7 -0.9,0 -1.1,0 -3.8,-0.3 -0.6,-0.1 -1.5,-0.1 -2.5,-0.1 -1.1,0 -1.2,0 -3.4,0.1 H 529 c -0.3,0 -0.4,-0.1 -0.4,-0.4 0,-0.2 0.1,-0.3 0.4,-0.4 1.4,-0.4 1.8,-1.4 1.8,-4.1 V 6.5 c 0,-2.3 -0.5,-2.7 -2.7,-3.1 -0.3,0 -0.4,-0.1 -0.4,-0.5 0,-0.2 0.2,-0.4 0.5,-0.4 h 0.5 0.7 c 2.6,0.1 3.9,0.1 7.6,0.1 1.4,0 4.7,-0.1 5.5,-0.1 h 0.3 c 0.3,0 0.4,0.1 0.4,0.5 0,0.3 0.1,0.7 0.1,1.2 0.1,1.4 0.1,1.5 0.1,1.8 0,0.7 -0.3,1.2 -0.5,1.2 -0.2,0 -0.3,-0.1 -0.3,-0.6 0,-1.9 -1.5,-2.8 -4.7,-2.7 h -1.4 c -1.9,0 -2.1,0.2 -2.1,2.2 v 3.1 h -0.5 z"
   id="path875" />
	<path
   class="st0"
   d="m 559.5,4.5 c 0,0.5 0,0.5 0.2,2.1 0.1,0.6 0.2,1.5 0.2,1.7 0,0.4 -0.1,0.5 -0.4,0.5 -0.2,0 -0.4,-0.2 -0.5,-0.5 -0.6,-2.8 -3.2,-5.1 -5.8,-5.1 -1.7,0 -3.3,1.5 -3.3,3 0,0.8 0.5,1.6 1.1,2.2 0.5,0.4 1,0.6 3.3,1.6 2.4,1 3.5,1.6 4.3,2.5 1,1.1 1.6,2.6 1.6,4.3 0,1.7 -0.6,3.2 -1.8,4.5 -1.2,1.2 -2.8,1.9 -4.3,1.9 -0.7,0 -1.9,-0.3 -3.3,-0.7 -1,-0.4 -1.1,-0.4 -1.6,-0.5 -0.6,-0.2 -0.6,-0.2 -0.8,-0.3 -0.1,-0.1 -0.2,-0.2 -0.2,-0.8 0,-0.4 -0.3,-1.3 -0.5,-2 -0.5,-2 -0.5,-2 -0.5,-2.6 0,-0.5 0.2,-0.7 0.5,-0.7 0.2,0 0.3,0.1 0.3,0.4 1,3.4 3.7,6 6.2,6 2.1,0 3.9,-1.8 3.9,-3.7 0,-1 -0.5,-1.9 -1.2,-2.5 -0.5,-0.4 -0.5,-0.4 -3.8,-1.8 -2.5,-1.1 -3.3,-1.6 -4.2,-2.6 -0.8,-0.9 -1.3,-2.1 -1.3,-3.6 0,-3.2 2.5,-5.7 5.6,-5.7 1.2,0 1.6,0.1 3.7,0.9 0.5,0.2 0.7,0.3 0.9,0.3 0.2,0 0.2,0 1,-0.4 0.1,0 0.2,-0.1 0.3,-0.1 0.3,0 0.3,0.1 0.3,0.5 z"
   id="path877" />
	<path
   class="st0"
   d="m 576.3,4.5 c 0,0.5 0,0.5 0.2,2.1 0.1,0.6 0.2,1.5 0.2,1.7 0,0.4 -0.1,0.5 -0.4,0.5 -0.2,0 -0.4,-0.2 -0.5,-0.5 -0.6,-2.8 -3.2,-5.1 -5.8,-5.1 -1.7,0 -3.3,1.5 -3.3,3 0,0.8 0.5,1.6 1.1,2.2 0.5,0.4 1,0.6 3.3,1.6 2.4,1 3.5,1.6 4.3,2.5 1,1.1 1.6,2.6 1.6,4.3 0,1.7 -0.6,3.2 -1.8,4.5 -1.2,1.2 -2.8,1.9 -4.3,1.9 -0.7,0 -1.9,-0.3 -3.3,-0.7 -1,-0.4 -1.1,-0.4 -1.6,-0.5 -0.6,-0.2 -0.6,-0.2 -0.8,-0.3 -0.1,-0.1 -0.2,-0.2 -0.2,-0.8 0,-0.4 -0.3,-1.3 -0.5,-2 -0.5,-2 -0.5,-2 -0.5,-2.6 0,-0.5 0.2,-0.7 0.5,-0.7 0.2,0 0.3,0.1 0.3,0.4 1,3.4 3.7,6 6.2,6 2.1,0 3.9,-1.8 3.9,-3.7 0,-1 -0.5,-1.9 -1.2,-2.5 -0.5,-0.4 -0.5,-0.4 -3.8,-1.8 -2.5,-1.1 -3.3,-1.6 -4.2,-2.6 -0.8,-0.9 -1.3,-2.1 -1.3,-3.6 0,-3.2 2.5,-5.7 5.6,-5.7 1.2,0 1.6,0.1 3.7,0.9 0.5,0.2 0.7,0.3 0.9,0.3 0.2,0 0.2,0 1,-0.4 0.1,0 0.2,-0.1 0.3,-0.1 0.3,0 0.3,0.1 0.3,0.5 z"
   id="path879" />
	<path
   class="st0"
   d="m 587.1,9.1 c 0,1.9 0.2,2.1 1.2,2.1 h 1.1 1.3 c 1.2,0 1.8,-0.6 2.6,-2.4 0.1,-0.3 0.2,-0.3 0.5,-0.3 0.2,0 0.4,0.1 0.4,0.4 0,0.1 0,0.4 -0.1,0.7 0,0.3 0,0.5 0,0.7 0,0.2 0,0.3 0.2,2.2 0.1,0.8 0.1,1.9 0.1,2.7 0,0.3 -0.1,0.4 -0.3,0.4 -0.3,0 -0.4,-0.2 -0.5,-0.5 -0.5,-2.3 -1,-2.6 -4.6,-2.5 -1,0 -1.4,0.1 -1.5,0.5 -0.1,0.5 -0.2,0.7 -0.2,2.9 v 1.4 c 0,1.2 0.2,2.6 0.4,3 0.4,0.9 0.7,1.2 1.6,1.2 2.7,0 4.7,-0.5 6.3,-1.7 0.6,-0.5 1.3,-1.3 1.6,-1.9 0.1,-0.1 0.1,-0.2 0.2,-0.2 0.3,0 0.4,0.2 0.4,0.4 0,1 -0.5,2.5 -1.1,3.3 -0.9,1.3 -2,1.7 -3.9,1.7 -0.9,0 -1.1,0 -3.8,-0.3 -0.6,-0.1 -1.5,-0.1 -2.5,-0.1 -1.1,0 -1.2,0 -3.4,0.1 h -0.9 c -0.3,0 -0.4,-0.1 -0.4,-0.4 0,-0.2 0.1,-0.3 0.4,-0.4 1.4,-0.4 1.8,-1.4 1.8,-4.1 V 6.5 c 0,-2.3 -0.5,-2.7 -2.7,-3.1 -0.3,0 -0.4,-0.1 -0.4,-0.5 0,-0.2 0.2,-0.4 0.5,-0.4 h 0.5 0.7 c 2.6,0.1 3.9,0.1 7.6,0.1 1.4,0 4.7,-0.1 5.5,-0.1 h 0.3 c 0.3,0 0.4,0.1 0.4,0.5 0,0.3 0.1,0.7 0.1,1.2 0.1,1.4 0.1,1.5 0.1,1.8 0,0.7 -0.3,1.2 -0.5,1.2 -0.2,0 -0.3,-0.1 -0.3,-0.6 0,-1.9 -1.5,-2.8 -4.7,-2.7 h -1.4 c -1.9,0 -2.1,0.2 -2.1,2.2 v 3.1 h -0.5 z"
   id="path881" />
	<path
   class="st0"
   d="m 606.8,9.1 c 0,1.9 0.2,2.1 1.2,2.1 h 1.1 1.3 c 1.2,0 1.8,-0.6 2.6,-2.4 0.1,-0.3 0.2,-0.3 0.5,-0.3 0.2,0 0.4,0.1 0.4,0.4 0,0.1 0,0.4 -0.1,0.7 0,0.3 0,0.5 0,0.7 0,0.2 0,0.3 0.2,2.2 0.1,0.8 0.1,1.9 0.1,2.7 0,0.3 -0.1,0.4 -0.3,0.4 -0.3,0 -0.4,-0.2 -0.5,-0.5 -0.5,-2.3 -1,-2.6 -4.6,-2.5 -1,0 -1.4,0.1 -1.5,0.5 -0.1,0.4 -0.2,0.7 -0.2,2.9 v 1.4 c 0,1.2 0.2,2.6 0.4,3 0.4,0.9 0.7,1.2 1.6,1.2 2.7,0 4.7,-0.5 6.3,-1.7 0.6,-0.5 1.3,-1.3 1.6,-1.9 0.1,-0.1 0.1,-0.2 0.2,-0.2 0.3,0 0.4,0.2 0.4,0.4 0,1 -0.5,2.5 -1.1,3.3 -0.9,1.3 -2,1.7 -3.9,1.7 -0.9,0 -1.1,0 -3.8,-0.3 -0.6,-0.1 -1.5,-0.1 -2.5,-0.1 -1.1,0 -1.2,0 -3.4,0.1 h -0.9 c -0.3,0 -0.4,-0.1 -0.4,-0.4 0,-0.2 0.1,-0.3 0.4,-0.4 1.4,-0.4 1.8,-1.4 1.8,-4.1 V 6.5 c 0,-2.3 -0.5,-2.7 -2.7,-3.1 -0.3,0 -0.4,-0.1 -0.4,-0.5 0,-0.2 0.2,-0.4 0.5,-0.4 h 0.5 0.7 c 2.6,0.1 3.9,0.1 7.6,0.1 1.4,0 4.7,-0.1 5.5,-0.1 h 0.3 c 0.3,0 0.4,0.1 0.4,0.5 0,0.3 0.1,0.7 0.1,1.2 0.1,1.4 0.1,1.5 0.1,1.8 0,0.7 -0.3,1.2 -0.5,1.2 -0.2,0 -0.3,-0.1 -0.3,-0.6 0,-1.9 -1.5,-2.8 -4.7,-2.7 h -1.4 c -1.9,0 -2.1,0.2 -2.1,2.2 v 3.1 h -0.5 z"
   id="path883" />
	<path
   class="st0"
   d="m 137.2,40.9 c 0.1,1.3 0.1,1.5 0.5,3.9 0.1,0.6 0.2,1.4 0.2,1.8 0,0.8 -0.4,1.3 -0.9,1.3 -0.4,0 -0.5,-0.2 -0.6,-0.8 -0.4,-2 -3.3,-6.6 -5.7,-8.8 -3.7,-3.6 -7.5,-5.2 -11.7,-5.2 -3.6,0 -6.3,1.2 -8.9,4 -3.3,3.6 -4.8,8 -4.8,14 0,6.3 1.8,12 5.3,16.1 3,3.6 7.3,5.7 11.3,5.7 3.5,0 7.5,-1.5 10.7,-3.8 1.4,-0.9 1.4,-0.9 4,-3.9 0.4,-0.4 0.6,-0.5 0.8,-0.5 0.4,0 0.6,0.4 0.6,0.6 0,0.9 -1.5,3.1 -3.3,5 -4.3,4.4 -9.9,6.8 -16.1,6.8 -12.7,0 -21.4,-8.9 -21.4,-22.2 0,-6.2 2.7,-13.1 6.8,-17.4 4,-4.1 9.9,-6.5 15.9,-6.5 4.7,0 7.2,0.8 12.5,3.8 0.4,0.3 0.8,0.4 1.2,0.4 0.6,0 0.6,0 1.6,-1.6 0.1,-0.1 0.4,-0.3 0.6,-0.3 0.9,0 1,0.2 1.1,4.5 z"
   id="path885" />
	<path
   class="st0"
   d="m 159,54.1 c -2.9,-0.1 -3.5,0.5 -3.4,3.7 V 66 c -0.1,5.8 1.8,8.5 6.3,8.7 0.8,0 1.2,0.2 1.2,0.8 0,0.7 -0.4,1 -1.6,1 -0.4,0 -1.1,-0.1 -2.4,-0.2 -2.2,-0.3 -5.5,-0.5 -6.8,-0.5 -1.3,0 -2.8,0.1 -7.8,0.6 h -0.4 c -0.6,0 -1,-0.4 -1,-1.1 0,-0.5 0.2,-0.6 0.8,-0.7 1.8,-0.3 3.5,-1.8 3.9,-3.7 0.2,-0.7 0.2,-1 0.3,-5 V 40.1 c 0.1,-4.2 -1.4,-5.8 -6,-6.6 -0.7,-0.1 -0.9,-0.3 -0.9,-0.8 0,-0.7 0.4,-1.1 1.1,-1.1 0.4,0 1.3,0.1 2.1,0.2 1.5,0.3 4.3,0.4 6.5,0.4 0.6,0 0.6,0 4.8,-0.4 1.1,-0.1 3.2,-0.3 3.7,-0.3 0.6,0 1.1,0.4 1.1,0.8 0,0.5 -0.3,0.8 -0.9,0.9 -2.7,0.4 -3.9,1.8 -3.8,4.8 v 8.3 c -0.1,4.2 0.1,4.5 3.6,4.5 h 15.1 c 2.6,0 2.9,-0.7 2.8,-5.2 v -5.7 c 0.2,-4.2 -1.4,-5.9 -6,-6.5 -0.7,-0.1 -0.9,-0.4 -0.9,-0.8 0,-0.7 0.4,-1.1 1.1,-1.1 0.4,0 1.3,0.1 2.1,0.2 1.6,0.3 4.2,0.4 6.8,0.4 0.4,0 2.1,-0.1 4.5,-0.4 1.3,-0.1 3,-0.3 3.6,-0.3 0.8,0 1.1,0.3 1.1,0.9 0,0.5 -0.3,0.7 -0.9,0.8 -2.7,0.4 -3.9,1.8 -3.8,4.8 v 27.9 c -0.2,5.7 1.8,8.6 6.3,8.7 0.9,0 1.3,0.2 1.3,0.8 0,0.7 -0.4,1 -1.6,1 -0.4,0 -1.1,-0.1 -2.4,-0.2 -2.1,-0.3 -5.5,-0.5 -6.8,-0.5 -1.3,0 -2.8,0.1 -7.8,0.6 h -0.4 c -0.6,0 -1,-0.4 -1,-1.1 0,-0.5 0.2,-0.6 0.8,-0.7 1.8,-0.3 3.5,-1.8 3.9,-3.7 0.2,-0.7 0.2,-1 0.3,-5 v -7.1 c 0,-4.1 -0.3,-4.6 -2.8,-4.6 H 159 Z"
   id="path887" />
	<path
   class="st0"
   d="m 217,45.9 c -0.9,-2.2 -1.8,-3.6 -2.2,-3.6 -0.4,0 -0.4,0 -2.1,3.7 l -3.8,8.7 c -0.6,1.4 -0.6,1.4 -0.6,1.7 0,0.8 0.6,1.1 2.4,1.1 h 8.9 c 1.6,0 1.9,-0.1 1.9,-0.6 0,-0.1 0,-0.3 -0.3,-0.9 z m 17.8,23.5 c 2.1,4.1 2.7,4.6 6.5,5.6 0.5,0.1 0.6,0.3 0.6,0.9 0,0.5 -0.3,0.8 -0.7,0.8 -0.1,0 -0.5,-0.1 -1.3,-0.2 -1.4,-0.3 -5.7,-0.5 -8,-0.5 -2.9,0 -6.5,0.2 -7.6,0.5 -0.4,0.1 -0.6,0.1 -0.8,0.1 -0.5,0 -0.9,-0.5 -0.9,-0.9 0,-0.4 0.2,-0.5 0.7,-0.6 2.1,-0.6 3.6,-2.4 3.6,-4.1 0,-1.3 -1.3,-4.8 -3.1,-8.6 -0.7,-1.6 -1.5,-1.8 -5.4,-1.8 h -8.2 c -3.1,0 -3.8,0.5 -5.2,3.7 -1.7,3.7 -2,4.7 -2,5.7 0,2.6 1.9,4.3 5.7,4.7 0.8,0.1 1.2,0.4 1.2,0.8 0,0.5 -0.5,0.9 -1.1,0.9 -0.5,0 -1.1,-0.1 -1.7,-0.2 -1.5,-0.4 -2.6,-0.5 -3.8,-0.5 -1.1,0 -2.4,0.1 -6.8,0.5 l -1.6,0.1 c -0.5,0 -0.8,-0.3 -0.8,-0.8 0,-0.5 0.2,-0.7 0.9,-0.9 2.4,-0.8 3.1,-1.7 5.9,-8.2 l 8.9,-20.5 c 0.7,-1.6 1.3,-2.8 1.6,-3.3 l 3,-6.3 c 2.6,-5.4 2.6,-5.4 2.9,-5.4 0.5,0 1.4,1.6 2.6,4.5 z"
   id="path889" />
	<path
   class="st0"
   d="m 263.5,64.1 c 0.1,4.9 0.4,5.9 1.6,7.6 1.2,1.7 3.1,2.6 5.7,2.7 0.9,0 1.2,0.3 1.2,1 0,0.6 -0.2,0.8 -1,0.8 -0.2,0 -0.2,0 -3.3,-0.1 -4.4,-0.4 -4.4,-0.4 -5.4,-0.4 -1.6,0 -2.1,0 -6,0.3 l -4.5,0.3 c -0.7,0.1 -1.4,0.1 -1.7,0.1 -0.5,0 -0.8,-0.3 -0.8,-0.8 0,-0.9 0.4,-1.2 1.6,-1.3 4.1,-0.6 5.6,-2.8 5.3,-7.8 V 38.3 c 0,-2.8 -0.5,-3.3 -3.3,-3.3 -4.6,0 -7.5,0.5 -9.1,1.4 -1.6,0.9 -2.1,1.6 -3.1,5.7 -0.5,1.8 -0.7,2.3 -1.4,2.3 -0.6,0 -1,-0.4 -1,-1 0,-0.2 0,-0.2 0.2,-1.6 0.1,-0.8 0.1,-0.8 0.5,-3.7 0.1,-0.9 0.3,-1.9 0.4,-2.8 0.1,-0.7 0.2,-1.4 0.3,-2 0.1,-1 0.4,-1.3 1.3,-1.3 0.1,0 0.7,0 1.2,0.1 0.6,0.1 2,0.1 3.6,0.1 l 6.7,0.1 c 6.4,0.1 6.4,0.1 8,0.1 3.7,0 12.5,-0.2 16.1,-0.4 l 2.4,-0.1 c 1.6,0 1.6,0 1.9,3.8 0.1,1.6 0.3,2.4 0.3,2.6 0.1,0.8 0.3,2.4 0.3,2.8 0,0.6 -0.3,1 -0.8,1 -0.6,0 -0.8,-0.3 -1.1,-1.2 -0.4,-1.7 -1.6,-3.6 -2.8,-4.6 -1.2,-0.8 -2.6,-1.1 -5.6,-1.1 -6.4,0 -7.3,0.5 -7.3,4.6 z"
   id="path891" />
	<path
   class="st0"
   d="m 311.6,64.1 c 0.1,4.9 0.4,5.9 1.6,7.6 1.2,1.7 3.1,2.6 5.7,2.7 0.9,0 1.2,0.3 1.2,1 0,0.6 -0.2,0.8 -1,0.8 -0.2,0 -0.2,0 -3.3,-0.1 -4.4,-0.4 -4.4,-0.4 -5.4,-0.4 -1.6,0 -2.1,0 -6,0.3 l -4.5,0.3 c -0.7,0.1 -1.4,0.1 -1.7,0.1 -0.5,0 -0.8,-0.3 -0.8,-0.8 0,-0.9 0.4,-1.2 1.6,-1.3 4.1,-0.6 5.6,-2.8 5.3,-7.8 V 38.3 c 0,-2.8 -0.5,-3.3 -3.3,-3.3 -4.6,0 -7.5,0.5 -9.1,1.4 -1.6,0.9 -2.1,1.6 -3.1,5.7 -0.5,1.8 -0.7,2.3 -1.4,2.3 -0.6,0 -1,-0.4 -1,-1 0,-0.2 0,-0.2 0.2,-1.6 0.1,-0.8 0.1,-0.8 0.5,-3.7 0.1,-0.9 0.3,-1.9 0.4,-2.8 0.1,-0.7 0.2,-1.4 0.3,-2 0.1,-1 0.4,-1.3 1.3,-1.3 0.1,0 0.7,0 1.2,0.1 0.6,0.1 2,0.1 3.6,0.1 l 6.7,0.1 c 6.4,0.1 6.4,0.1 8,0.1 3.7,0 12.5,-0.2 16.1,-0.4 l 2.4,-0.1 c 1.6,0 1.6,0 1.9,3.8 0.1,1.6 0.3,2.4 0.3,2.6 0.1,0.8 0.3,2.4 0.3,2.8 0,0.6 -0.3,1 -0.8,1 -0.6,0 -0.8,-0.3 -1.1,-1.2 -0.4,-1.7 -1.6,-3.6 -2.8,-4.6 -1.2,-0.8 -2.6,-1.1 -5.6,-1.1 -6.4,0 -7.3,0.5 -7.3,4.6 z"
   id="path893" />
	<path
   class="st0"
   d="m 349.3,45.9 c -0.9,-2.2 -1.8,-3.6 -2.2,-3.6 -0.4,0 -0.4,0 -2.1,3.7 l -3.8,8.7 c -0.6,1.4 -0.6,1.4 -0.6,1.7 0,0.8 0.6,1.1 2.4,1.1 h 8.9 c 1.6,0 1.9,-0.1 1.9,-0.6 0,-0.1 0,-0.3 -0.3,-0.9 z M 367,69.4 c 2.1,4.1 2.7,4.6 6.5,5.6 0.5,0.1 0.6,0.3 0.6,0.9 0,0.5 -0.3,0.8 -0.7,0.8 -0.1,0 -0.5,-0.1 -1.3,-0.2 -1.4,-0.3 -5.7,-0.5 -8,-0.5 -2.9,0 -6.5,0.2 -7.6,0.5 -0.4,0.1 -0.6,0.1 -0.8,0.1 -0.5,0 -0.9,-0.5 -0.9,-0.9 0,-0.4 0.2,-0.5 0.7,-0.6 2.1,-0.6 3.6,-2.4 3.6,-4.1 0,-1.3 -1.3,-4.8 -3.1,-8.6 -0.7,-1.6 -1.5,-1.8 -5.4,-1.8 h -8.2 c -3.1,0 -3.8,0.5 -5.2,3.7 -1.6,3.7 -1.9,4.7 -1.9,5.7 0,2.6 1.9,4.3 5.7,4.7 0.8,0.1 1.2,0.4 1.2,0.8 0,0.5 -0.5,0.9 -1.1,0.9 -0.5,0 -1.1,-0.1 -1.7,-0.2 -1.5,-0.4 -2.6,-0.5 -3.8,-0.5 -1.1,0 -2.4,0.1 -6.8,0.5 l -1.6,0.1 c -0.5,0 -0.8,-0.3 -0.8,-0.8 0,-0.5 0.2,-0.7 0.9,-0.9 2.4,-0.8 3.1,-1.7 5.9,-8.2 l 8.9,-20.5 c 0.7,-1.6 1.3,-2.8 1.6,-3.3 l 3,-6.3 c 2.6,-5.4 2.6,-5.4 2.9,-5.4 0.5,0 1.4,1.6 2.6,4.5 z"
   id="path895" />
	<path
   class="st0"
   d="m 411.1,58.5 c 2.6,3 3.5,3.7 4,3.7 0.4,0 0.6,-0.4 0.7,-0.8 0.1,-0.6 0.4,-11.5 0.4,-15.1 0,-9.9 -1.6,-12.4 -7.6,-13 -0.8,-0.1 -1.1,-0.3 -1.1,-0.7 0,-0.6 0.3,-0.8 0.9,-0.8 1,0 1.5,0.1 3.8,0.4 1,0.1 2.1,0.2 2.7,0.2 1.5,0 4.1,-0.2 7.2,-0.6 0.4,-0.1 0.8,-0.1 1.1,-0.1 0.6,0 0.9,0.3 0.9,0.8 0,0.6 -0.3,0.8 -1.1,1.1 -3.1,0.6 -4.4,3.5 -4.2,8.9 l -0.5,20.3 c -0.1,3.8 -0.1,3.9 -0.1,5 0,2.9 0.1,6.2 0.1,7.4 v 0.5 c 0,0.6 -0.2,0.8 -0.6,0.8 -0.4,0 -0.8,-0.4 -1.2,-0.7 L 387,42.7 c -0.7,-0.8 -0.8,-0.8 -1.1,-0.8 -0.6,0 -0.8,0.6 -0.8,2.5 V 57 c 0.1,15.2 0.7,16.7 7.3,17.6 0.7,0.1 1,0.4 1,0.8 0,0.6 -0.4,0.9 -0.9,0.9 -0.2,0 -0.8,-0.1 -1.4,-0.1 -1.6,-0.3 -4.4,-0.5 -6,-0.5 -1.6,0 -4.6,0.2 -5.9,0.5 -0.6,0.1 -1.4,0.2 -1.6,0.2 -0.6,0 -0.8,-0.3 -0.8,-0.8 0,-0.5 0.2,-0.6 0.9,-0.8 4.3,-1.8 4.5,-2.5 4.8,-16.6 V 54.4 44.2 c 0.1,-6.3 -2.6,-10.3 -7.4,-10.5 -0.7,-0.1 -1,-0.3 -1,-0.8 0,-0.6 0.4,-0.9 1,-0.9 l 2.2,0.1 c 2.6,0 4.8,-0.1 6.9,-0.3 0.6,-0.1 1.4,-0.1 1.8,-0.1 1.2,0 1.5,0.2 3.3,2.4 0.4,0.4 0.4,0.4 2.5,2.9 1.4,1.6 1.8,2.2 2.1,2.4 z"
   id="path897" />
	<path
   class="st0"
   d="m 433.6,51.5 c 0,13.9 6.8,23.3 16.6,23.3 4.2,0 8.3,-2 10.6,-5 2.5,-3.3 4.1,-8.9 4.1,-14.2 0,-6.3 -2.2,-12.6 -5.7,-16.8 -2.8,-3.2 -7.3,-5.2 -11.6,-5.2 -8.7,-0.2 -14,6.6 -14,17.9 m 38.9,0.8 c 0,7.4 -3,14.7 -7.9,19.3 -3.8,3.6 -9.5,5.6 -15.8,5.6 -14.1,0 -23.2,-8.9 -23.2,-22.6 0,-6.6 2.8,-13.4 7.2,-17.3 4.3,-3.9 10.5,-6.1 17.1,-6.1 13.5,-0.3 22.6,8.3 22.6,21.1"
   id="path899" />
	<path
   class="st0"
   d="m 485.2,51.5 c 0,13.9 6.8,23.3 16.6,23.3 4.2,0 8.3,-2 10.6,-5 2.5,-3.3 4.1,-8.9 4.1,-14.2 0,-6.3 -2.2,-12.6 -5.7,-16.8 -2.8,-3.2 -7.3,-5.2 -11.6,-5.2 -8.7,-0.2 -14,6.6 -14,17.9 m 38.9,0.8 c 0,7.4 -3,14.7 -7.9,19.3 -3.8,3.6 -9.5,5.6 -15.8,5.6 -14.1,0 -23.2,-8.9 -23.2,-22.6 0,-6.6 2.8,-13.4 7.2,-17.3 4.3,-3.9 10.5,-6.1 17.1,-6.1 13.4,-0.3 22.6,8.3 22.6,21.1"
   id="path901" />
	<path
   class="st0"
   d="m 568.9,41.4 c 0,1.5 0.1,2.8 0.3,4.6 0.1,0.2 0.1,0.5 0.1,0.6 0,0.6 -0.4,0.9 -1,0.9 -0.5,0 -0.6,-0.4 -0.9,-1.4 -1.6,-7.4 -8.5,-13 -16,-13 -8.9,0 -14.6,7.5 -14.6,19.2 0,12.2 6.3,22 14.1,22 2.9,0 7.6,-1.5 9.5,-2.9 1.3,-0.9 1.8,-3.1 1.8,-7.1 0,-5.1 -1.6,-6.8 -6.7,-7.1 -0.6,0 -1,-0.4 -1,-0.9 0,-0.5 0.4,-0.8 1.2,-0.8 0.2,0 0.6,0 1.1,0.1 2.6,0.3 4.1,0.4 7.3,0.4 2.6,0 4.6,-0.1 6,-0.3 1,-0.1 1.8,-0.2 2.5,-0.2 0.6,0 1.1,0.4 1.1,0.8 0,0.5 -0.4,0.8 -1.1,1 -2.6,0.6 -3.3,2.3 -3.3,7.8 0,0.6 0,1.4 0.1,1.8 0.1,1 0.1,1.8 0.1,2.4 0,1.3 -0.5,1.7 -2.1,2.4 -0.4,0.1 -2.4,0.9 -5.1,2.2 -5.4,2.3 -9.6,3.3 -13.4,3.3 -5.6,0 -10.7,-2.1 -14.3,-5.8 -3.8,-3.9 -5.7,-9 -5.7,-15.7 0,-13.8 9.9,-24.5 22.4,-24.5 3.9,0 7.4,0.8 12.7,3.2 1.4,0.6 2,0.8 2.4,0.8 0.5,0 0.5,-0.1 1.1,-0.6 0.3,-0.2 0.5,-0.4 0.8,-0.4 0.7,0 1,0.4 1,1.1 v 2.3 z"
   id="path903" />
	<path
   class="st0"
   d="m 595.2,45.9 c -0.9,-2.2 -1.8,-3.6 -2.2,-3.6 -0.4,0 -0.4,0 -2.1,3.7 l -3.8,8.7 c -0.6,1.4 -0.6,1.4 -0.6,1.7 0,0.8 0.6,1.1 2.4,1.1 h 8.9 c 1.6,0 1.9,-0.1 1.9,-0.6 0,-0.1 0,-0.3 -0.3,-0.9 z M 613,69.4 c 2.1,4.1 2.7,4.6 6.5,5.6 0.5,0.1 0.6,0.3 0.6,0.9 0,0.5 -0.3,0.8 -0.7,0.8 -0.1,0 -0.5,-0.1 -1.3,-0.2 -1.4,-0.3 -5.7,-0.5 -8,-0.5 -2.9,0 -6.5,0.2 -7.6,0.5 -0.4,0.1 -0.6,0.1 -0.8,0.1 -0.5,0 -0.9,-0.5 -0.9,-0.9 0,-0.4 0.2,-0.5 0.7,-0.6 2.1,-0.6 3.6,-2.4 3.6,-4.1 0,-1.3 -1.3,-4.8 -3.1,-8.6 -0.7,-1.6 -1.5,-1.8 -5.4,-1.8 h -8.2 c -3.1,0 -3.8,0.5 -5.2,3.7 -1.6,3.7 -1.9,4.7 -1.9,5.7 0,2.6 1.9,4.3 5.7,4.7 0.8,0.1 1.2,0.4 1.2,0.8 0,0.5 -0.5,0.9 -1.1,0.9 -0.5,0 -1.1,-0.1 -1.7,-0.2 -1.5,-0.4 -2.6,-0.5 -3.8,-0.5 -1.1,0 -2.4,0.1 -6.8,0.5 l -1.6,0.1 c -0.5,0 -0.8,-0.3 -0.8,-0.8 0,-0.5 0.2,-0.7 0.9,-0.9 2.4,-0.8 3.1,-1.7 5.9,-8.2 l 8.9,-20.5 c 0.7,-1.6 1.3,-2.8 1.6,-3.3 l 3,-6.3 c 2.6,-5.4 2.6,-5.4 2.9,-5.4 0.5,0 1.4,1.6 2.6,4.5 z"
   id="path905" />
	<path
   class="st0"
   d="M 79.2,35 86.7,2.4 H 42 c -8.5,0 -14.8,1.1 -19.6,3.4 -6.1,2.9 -10.2,8 -11.8,14.8 L 2.7,55.1 c -1.4,5.8 -0.5,10.6 2.4,14.2 3.8,4.8 10.6,6.8 22.5,6.8 H 69.8 L 75.6,50.5 H 41.1 l 3.7,-15.7 z"
   id="path907" />
	<path
   class="st1"
   d="m 36.2,54.5 h 34.7 l -4.1,18 H 27.6 C 16.9,72.4 11,70.8 8,67 5.8,64.3 5.4,60.7 6.4,56 l 7.9,-34.5 c 1.3,-5.7 4.6,-9.8 9.7,-12.2 4.3,-2 10,-3 18,-3 H 82 L 76.3,31.2 H 49.4 l 1.6,-7 h -7.8 z"
   id="path909" />
	<path
   class="st2"
   d="M 78.9,8.9 74.4,28.6 H 53 l 1.6,-7 H 41.4 L 33.3,57.1 H 68 L 65.1,69.8 H 27.8 c -14,0 -21,-2.6 -18.6,-13.2 L 17.1,22.1 C 19.5,11.9 28.5,8.8 42.3,8.8 Z"
   id="path911" />
</g></g>
</svg>
