<svg xmlns="http://www.w3.org/2000/svg" viewBox="0 0 200.69 29.39"><defs><style>.cls-1{fill:#fff;}.cls-2{fill:#112e51;}.cls-3{fill:#fdb736;}</style></defs><title>UTC Wordmark Power C</title><g id="Layer_2" data-name="Layer 2"><g id="Layer_1-2" data-name="Layer 1"><path class="cls-1" d="M14.69,19l2.13-8.87h.5l-.64,2.76H29.89l3-12.74H16.22C12.92.22,8.82.31,6,2.81,4,4.58,3.43,6.92,2.37,11.17h0L.76,17.77v.09C.49,19.12.3,20.39.19,21.25A9.19,9.19,0,0,0,0,23.56c.19,1.4,1,3.91,4.65,4.94A18.57,18.57,0,0,0,9.74,29H26.53l2.13-10Z"/><path class="cls-2" d="M28.71,11.37H18.63l.63-2.73H16L13.11,20.53l13.71,0-1.49,7H9.76a17.39,17.39,0,0,1-4.65-.46c-2.64-.76-3.39-2.43-3.56-3.69a35.22,35.22,0,0,1,.7-5.2v0h0l1.6-6.59h0C4.88,7.45,5.39,5.4,7,3.94c2.39-2.13,6.19-2.21,9.24-2.28H31Z"/><path class="cls-3" d="M19.9,10.36h8l1.8-7.69H16.3c-3.11.07-6.51.17-8.59,2C6.34,5.91,5.88,7.63,4.84,11.78l-1.6,6.59a41.55,41.55,0,0,0-.69,4.84v0C3,26.47,7.29,26.5,9.76,26.5H24.51l1.06-5-13.65,0L15.23,7.63h5.29Z"/><path class="cls-1" d="M43.78,14.46a5.71,5.71,0,0,1,4.85,2.92,3.75,3.75,0,0,1,.33.67c.16.37.29.67.56.67s.28-.2.28-.41a3.39,3.39,0,0,0,0-.43l-.21-2.21c0-.2-.06-.47-.26-.47a.49.49,0,0,0-.25.1.65.65,0,0,1-.24.09,1.35,1.35,0,0,1-.56-.29,5.22,5.22,0,0,0-.91-.53,8.34,8.34,0,0,0-3.59-.77,6.71,6.71,0,0,0-5.18,2,8.41,8.41,0,0,0-2.2,5.9c0,4.66,2.79,7.55,7.27,7.55a9,9,0,0,0,5.6-1.71l0,0,.42-1.75a1.89,1.89,0,0,0,.07-.35c0-.19-.1-.34-.24-.34s-.33.21-.52.54a4.88,4.88,0,0,1-.83,1.11A6.19,6.19,0,0,1,44,28.47a5.13,5.13,0,0,1-4.1-2.09,9,9,0,0,1-1.65-5.5,6.91,6.91,0,0,1,1.55-4.66A5.15,5.15,0,0,1,43.78,14.46Z"/><path class="cls-1" d="M65.73,28.35a1.65,1.65,0,0,1-.76-.28c-.57-.42-.67-1-.67-2V16.88c0-.87,0-1.38.5-1.79a1.76,1.76,0,0,1,.7-.32c.28-.08.53-.15.53-.42a.35.35,0,0,0-.39-.32l-.23,0a15.57,15.57,0,0,1-1.92.11c-.57,0-1.06,0-1.49-.08s-.62-.05-.87-.05-.49,0-.49.34.23.31.5.36a2,2,0,0,1,.79.3c.61.44.64,1,.64,1.87v3.24c0,.45-.07.48-.52.48H55c-.45,0-.51,0-.51-.48V16.88c0-.87,0-1.38.49-1.79a2,2,0,0,1,.7-.33c.29-.08.53-.16.53-.43a.34.34,0,0,0-.38-.32l-.22,0a20.32,20.32,0,0,1-2.12.11,15.13,15.13,0,0,1-1.56-.09c-.25,0-.45,0-.61,0-.31,0-.49.06-.49.36s.23.3.49.35a1.74,1.74,0,0,1,.8.29c.61.44.64,1,.64,1.87v9.21c0,.86,0,1.36-.56,1.83a1.89,1.89,0,0,1-.68.38c-.27.11-.48.19-.48.45s.15.32.39.32l.26,0a16.36,16.36,0,0,1,2-.11c.44,0,.86,0,1.27.07s.7.06,1,.06.5,0,.5-.34-.24-.33-.52-.38a1.74,1.74,0,0,1-.76-.28c-.56-.42-.66-1-.66-2V22c0-.34.11-.4.51-.4h7.06c.39,0,.52.06.52.4v4.13c0,.86,0,1.36-.56,1.83a1.89,1.89,0,0,1-.68.38c-.27.11-.48.19-.48.45s.14.32.37.32l.26,0a17,17,0,0,1,2-.11c.45,0,.87,0,1.27.07s.7.06,1,.06.5,0,.5-.34S66,28.4,65.73,28.35Z"/><path class="cls-1" d="M82.22,28.37a2.73,2.73,0,0,1-.51-.13c-.67-.28-1-1-1.44-2L75.44,14v0c-.08-.19-.13-.34-.31-.34s-.28.13-.38.33h0L68.85,26.51a4.34,4.34,0,0,1-1.09,1.6,1.92,1.92,0,0,1-.45.23c-.23.08-.42.15-.42.36a.33.33,0,0,0,.3.33,2.43,2.43,0,0,0,.33,0,4.63,4.63,0,0,1,.86-.09c.75,0,1.36.05,1.81.09l.62,0c.19,0,.38,0,.38-.3s-.21-.31-.44-.35a1.17,1.17,0,0,1-.35-.08c-.49-.2-.76-.51-.76-.89A2.64,2.64,0,0,1,70,26.34l1-2.25c.23-.51.37-.76.91-.76H76.7c.53,0,.68.16.87.63l1.1,2.87a2.26,2.26,0,0,1,.21.79c0,.33-.18.52-.67.7l-.12,0c-.23.08-.4.13-.4.39a.32.32,0,0,0,.28.3l.29,0A10.92,10.92,0,0,1,80,28.9c.89,0,1.55.06,2,.1l.45,0c.23,0,.33-.1.33-.3S82.49,28.42,82.22,28.37Zm-5.44-6.15c0,.1-.14.16-.36.16H72.36c-.43,0-.49-.12-.49-.22a.75.75,0,0,1,.13-.37l2.29-4.91c.07-.13.16-.21.24-.21s.15.07.21.23l1.93,5,0,0A1.18,1.18,0,0,1,76.78,22.22Z"/><path class="cls-1" d="M93.82,14.41c0-.28-.17-.4-.5-.4l-.7,0c-.5,0-1.18.09-2,.09H84c-.75,0-1.34-.05-1.81-.09-.29,0-.52,0-.7,0-.52,0-.7,0-.75.49l-.23,2.14a2.7,2.7,0,0,0,0,.37c0,.19,0,.32.26.32s.33-.24.41-.55a3.35,3.35,0,0,1,.16-.52c.37-.84.82-1.18,1.55-1.18h3c.42,0,.55.11.55.48V26.28c0,1.14,0,1.56-.74,1.89a2.61,2.61,0,0,1-.64.16c-.34.06-.64.1-.64.44s.16.34.45.34a4.66,4.66,0,0,0,.54-.05,12.7,12.7,0,0,1,1.82-.14c.55,0,1,0,1.49.09s.66.06.93.06.51-.12.51-.37-.2-.3-.48-.36a3,3,0,0,1-.71-.21c-.74-.33-.78-.71-.78-1.77V15.59c0-.41.12-.51.61-.51h2.76a1.78,1.78,0,0,1,1.68.85,1.65,1.65,0,0,1,.15.51c0,.26.09.51.36.51s.31-.26.31-.45v-.15Z"/><path class="cls-1" d="M102.72,15.08h2.77a1.79,1.79,0,0,1,1.68.85,2,2,0,0,1,.15.51c0,.26.08.51.36.51s.3-.26.3-.45v-.15l-.15-1.94c0-.28-.17-.4-.49-.4s-.41,0-.71,0c-.5,0-1.18.09-2,.09H98c-.74,0-1.33-.05-1.81-.09-.29,0-.52,0-.7,0-.52,0-.7,0-.75.49l-.23,2.14a2.7,2.7,0,0,0,0,.37c0,.19,0,.32.26.32s.33-.24.41-.55a5,5,0,0,1,.16-.52c.37-.84.82-1.18,1.55-1.18h3c.43,0,.55.11.55.48V26.28c0,1.14,0,1.56-.74,1.89a2.54,2.54,0,0,1-.63.16c-.35.06-.65.1-.65.44s.17.34.45.34a5,5,0,0,0,.55-.05,12.42,12.42,0,0,1,1.81-.14c.56,0,1,0,1.49.09s.66.06.93.06.52-.12.52-.37-.2-.3-.48-.36a2.91,2.91,0,0,1-.72-.21c-.74-.33-.78-.71-.78-1.77V15.59C102.11,15.18,102.24,15.08,102.72,15.08Z"/><path class="cls-1" d="M120.88,28.37a2.55,2.55,0,0,1-.51-.13c-.67-.28-1.05-1-1.44-2L114.1,14v0c-.08-.19-.14-.34-.31-.34s-.28.13-.38.33h0l-5.89,12.58a4.34,4.34,0,0,1-1.09,1.6,2,2,0,0,1-.46.23c-.22.08-.41.15-.41.36a.33.33,0,0,0,.3.33l.33,0a4.53,4.53,0,0,1,.86-.09c.75,0,1.36.05,1.8.09l.62,0c.19,0,.39,0,.39-.3s-.21-.31-.44-.35a1.11,1.11,0,0,1-.35-.08c-.49-.2-.76-.51-.76-.89a2.77,2.77,0,0,1,.31-1.07l1-2.25c.24-.51.38-.76.92-.76h4.78c.54,0,.69.16.87.63l1.11,2.87a2.26,2.26,0,0,1,.21.79c0,.33-.18.52-.67.7l-.12,0c-.23.08-.4.13-.4.39a.32.32,0,0,0,.28.3l.28,0a11,11,0,0,1,1.7-.12c.89,0,1.55.06,2,.1l.46,0c.22,0,.32-.1.32-.3S121.14,28.42,120.88,28.37Zm-5.45-6.15c0,.1-.14.16-.35.16H111c-.43,0-.49-.12-.49-.22a.83.83,0,0,1,.12-.37l2.3-4.91c.06-.13.15-.21.23-.21s.16.07.22.23l1.93,5v0A.88.88,0,0,1,115.43,22.22Z"/><path class="cls-1" d="M136.55,14a4.21,4.21,0,0,0-.52.05,11.19,11.19,0,0,1-1.54.12,7.7,7.7,0,0,1-1.31-.12,2.63,2.63,0,0,0-.41-.05.3.3,0,0,0-.28.32c0,.24.25.3.58.38a3.24,3.24,0,0,1,1,.36c.63.41.74,1.4.74,3.22v7.25a.86.86,0,0,1,0,.31.62.62,0,0,1-.18-.15L124.43,14.34a.73.73,0,0,0-.7-.27h-.57a5.79,5.79,0,0,1-.65,0h-.27c-.21,0-.43,0-.43.3s.23.34.53.42a2.2,2.2,0,0,1,1,.55c.75.75.9,1.89.9,3.5,0,.34,0,.7,0,1.08h0l-.17,5.53v.1c0,1.47,0,2.14-.88,2.64a1.93,1.93,0,0,1-.47.19c-.25.08-.47.14-.47.45s.18.28.32.28l.37,0a5.3,5.3,0,0,1,.93-.09c.66,0,1.21,0,1.65.08s.56.05.77.05.54,0,.54-.34-.21-.29-.45-.31a1.79,1.79,0,0,1-.6-.14c-.71-.36-.82-.83-.82-1.83,0-.12,0-.24,0-.38s0-.3,0-.47l.19-7.51c0-.12,0-.18.07-.18a.88.88,0,0,1,.21.19L135,28.88c.18.21.31.3.42.3.3,0,.3-.3.3-.6V16.88a2.64,2.64,0,0,1,.56-2,1,1,0,0,1,.41-.2c.18-.06.35-.11.35-.37S136.83,14,136.55,14Z"/><path class="cls-1" d="M145,13.71A7.41,7.41,0,0,0,139.58,16a8,8,0,0,0-2.27,5.58,7.85,7.85,0,0,0,2.15,5.66,7.7,7.7,0,0,0,5.62,2.17,7.47,7.47,0,0,0,5.77-2.63,8.07,8.07,0,0,0,1.93-5.37,7.72,7.72,0,0,0-2.1-5.43A7.47,7.47,0,0,0,145,13.71Zm6,8.34c0,4-2.25,6.52-5.86,6.52a5.43,5.43,0,0,1-4.83-2.87h0A9.17,9.17,0,0,1,139,20.9a6.62,6.62,0,0,1,1.62-4.63,5.52,5.52,0,0,1,4.2-1.72,5.4,5.4,0,0,1,4.66,2.51A9.1,9.1,0,0,1,151.07,22.05Z"/><path class="cls-1" d="M161.79,13.71A7.39,7.39,0,0,0,156.34,16a7.92,7.92,0,0,0-2.27,5.58,7.8,7.8,0,0,0,2.15,5.66,7.69,7.69,0,0,0,5.61,2.17,7.5,7.5,0,0,0,5.78-2.63,8.11,8.11,0,0,0,1.92-5.37A7.71,7.71,0,0,0,167.44,16,7.51,7.51,0,0,0,161.79,13.71Zm6,8.34c0,4-2.24,6.52-5.86,6.52a5.43,5.43,0,0,1-4.83-2.87h0a9.16,9.16,0,0,1-1.37-4.8,6.67,6.67,0,0,1,1.61-4.63,5.54,5.54,0,0,1,4.21-1.72,5.4,5.4,0,0,1,4.66,2.51A9.09,9.09,0,0,1,167.82,22.05Z"/><path class="cls-1" d="M185.21,21.35a.23.23,0,0,0-.26-.26l-.2,0a11,11,0,0,1-1.36.08,16.52,16.52,0,0,1-1.67-.09l-.52,0c-.26,0-.47,0-.47.34s.25.32.51.36a2.08,2.08,0,0,1,.41.11,1,1,0,0,1,.7,1.13v2.53a2.1,2.1,0,0,1-.79,1.94,5.54,5.54,0,0,1-3.14,1c-3.4,0-5.86-3.19-5.86-7.59,0-3.79,2.28-6.44,5.54-6.44a6.1,6.1,0,0,1,4.72,2.3,5.2,5.2,0,0,1,.67,1.19c.17.37.28.62.52.62s.28-.19.28-.39a4,4,0,0,0,0-.45l-.21-2.21c0-.2-.06-.47-.26-.47a.49.49,0,0,0-.25.1.65.65,0,0,1-.24.09,1.6,1.6,0,0,1-.62-.26,7,7,0,0,0-.68-.35,9,9,0,0,0-3.82-.83,6.75,6.75,0,0,0-5.23,2,8.35,8.35,0,0,0-2.22,5.92c0,4.58,2.8,7.53,7.13,7.53a9.72,9.72,0,0,0,5.18-1.62l.22-.13c.16-.09.3-.15.43-.21.33-.15.53-.23.53-.63a2.51,2.51,0,0,0,0-.3V23a1.19,1.19,0,0,1,.4-1.07,2.34,2.34,0,0,1,.27-.14C185.05,21.68,185.21,21.62,185.21,21.35Z"/><path class="cls-1" d="M200.19,28.37a2.73,2.73,0,0,1-.51-.13c-.67-.28-1.05-1-1.44-2L193.41,14v0c-.08-.19-.14-.34-.31-.34s-.28.13-.38.33h0l-5.89,12.58a4.34,4.34,0,0,1-1.09,1.6,1.92,1.92,0,0,1-.45.23c-.23.08-.42.15-.42.36a.33.33,0,0,0,.3.33l.33,0a4.53,4.53,0,0,1,.86-.09c.75,0,1.36.05,1.8.09l.62,0c.2,0,.39,0,.39-.3s-.21-.31-.44-.35a1.17,1.17,0,0,1-.35-.08c-.49-.2-.76-.51-.76-.89a2.77,2.77,0,0,1,.31-1.07L189,24.09c.23-.51.37-.76.91-.76h4.78c.54,0,.69.16.87.63l1.11,2.87a2.26,2.26,0,0,1,.21.79c0,.33-.18.52-.67.7l-.12,0c-.23.08-.4.13-.4.39a.32.32,0,0,0,.28.3l.29,0a10.7,10.7,0,0,1,1.69-.12c.89,0,1.55.06,2,.1l.45,0c.23,0,.33-.1.33-.3S200.46,28.42,200.19,28.37Zm-5.45-6.15c0,.1-.14.16-.35.16h-4.06c-.43,0-.49-.12-.49-.22a.75.75,0,0,1,.13-.37l2.29-4.91c.07-.13.15-.21.24-.21s.15.07.21.23l1.93,5,0,0A1.07,1.07,0,0,1,194.74,22.22Z"/><path class="cls-1" d="M56.88.62a.83.83,0,0,1,.34.15c.27.2.28.46.28.94V4.58a4,4,0,0,0,.7,2.89,3.19,3.19,0,0,0,2.49.91,3,3,0,0,0,2.48-1.1,4.69,4.69,0,0,0,.63-3.07V1.71c0-.44,0-.72.2-.91a.83.83,0,0,1,.26-.14c.14-.05.3-.11.3-.32a.22.22,0,0,0-.24-.22l-.17,0c-.16,0-.42,0-.78,0-.18,0-.35,0-.52,0l-.39,0c-.13,0-.33,0-.33.26s.18.22.32.25a.81.81,0,0,1,.39.14c.26.19.3.43.3.94V4.56a3.92,3.92,0,0,1-.44,2.36,2.24,2.24,0,0,1-1.92.8,2.08,2.08,0,0,1-1.84-.86,4.67,4.67,0,0,1-.37-2.39V1.71a1.46,1.46,0,0,1,.18-.94A.57.57,0,0,1,59,.64c.14,0,.32-.08.32-.3a.23.23,0,0,0-.26-.22H59a8.39,8.39,0,0,1-1,0,7.8,7.8,0,0,1-.8,0l-.28,0c-.09,0-.3,0-.3.23S56.74.6,56.88.62Z"/><path class="cls-1" d="M65,.64a1.09,1.09,0,0,1,.51.28A2.45,2.45,0,0,1,66,2.72a5.62,5.62,0,0,1,0,.57L65.9,6.23v0c0,.78,0,1.1-.43,1.35a.89.89,0,0,1-.24.09c-.14,0-.3.09-.3.3a.21.21,0,0,0,.24.22l.21,0a3.08,3.08,0,0,1,.48,0c.35,0,.64,0,.88,0l.41,0c.12,0,.35,0,.35-.25s-.17-.22-.3-.23a.82.82,0,0,1-.29-.07c-.34-.17-.4-.38-.4-.91V6.59a2.09,2.09,0,0,0,0-.25l.1-4,0,0,5,5.72c.11.13.2.18.28.18s.23-.23.23-.39V1.71a1.34,1.34,0,0,1,.27-1,.44.44,0,0,1,.19-.1c.1,0,.24-.07.24-.26s-.1-.23-.31-.23l-.29,0a5.38,5.38,0,0,1-.81.06,3.7,3.7,0,0,1-.68-.06l-.23,0a.23.23,0,0,0-.22.24c0,.19.18.23.36.27a1.64,1.64,0,0,1,.5.19c.3.19.36.71.36,1.64V6.34l-5.37-6A.44.44,0,0,0,65.8.15h-.31l-.34,0H65c-.09,0-.3,0-.3.23S64.88.6,65,.64Z"/><path class="cls-1" d="M73.93.63a.74.74,0,0,1,.37.14c.27.2.3.44.3.94V6.59c0,.45,0,.69-.27.92A1.18,1.18,0,0,1,74,7.7c-.15.06-.3.12-.3.3a.24.24,0,0,0,.27.24h.15a9.53,9.53,0,0,1,1-.05c.24,0,.46,0,.68,0l.53,0c.13,0,.33,0,.33-.25s-.18-.24-.32-.27v0A.82.82,0,0,1,76,7.59c-.27-.2-.31-.47-.31-1V1.71c0-.46,0-.7.23-.9a.8.8,0,0,1,.35-.16c.15-.05.33-.1.33-.3a.25.25,0,0,0-.27-.24h-.13a9.43,9.43,0,0,1-1.12.06,8.26,8.26,0,0,1-.85,0l-.28,0c-.09,0-.32,0-.32.24S73.79.6,73.93.63Z"/><path class="cls-1" d="M77.17.61a.79.79,0,0,1,.22.07,1.52,1.52,0,0,1,.51.74l2.8,6.75a.3.3,0,0,0,.27.24.32.32,0,0,0,.26-.21l2.6-6.14.08-.21A4.09,4.09,0,0,1,84.5.71a.48.48,0,0,1,.14-.09c.11-.05.23-.12.23-.27s0-.23-.27-.23h-.1a3.36,3.36,0,0,1-.59,0c-.22,0-.4,0-.57,0L83,.12c-.13,0-.33,0-.33.22s.17.23.35.27l.12,0a.27.27,0,0,1,.24.24,4.7,4.7,0,0,1-.47,1.64l-1.64,4a.27.27,0,0,1-.08.11.31.31,0,0,1-.07-.12L79,1.51a2,2,0,0,1-.18-.6c0-.21.12-.27.25-.33s.2-.1.2-.23,0-.23-.28-.23l-.17,0a5.17,5.17,0,0,1-.69,0c-.38,0-.65,0-.81,0l-.16,0c-.19,0-.29.09-.29.24S77.06.59,77.17.61Z"/><path class="cls-1" d="M85.46.63a.74.74,0,0,1,.37.14c.26.2.29.44.29.94V6.59c0,.43,0,.7-.24.93a.88.88,0,0,1-.28.18c-.13.06-.27.12-.27.31a.24.24,0,0,0,.22.23h.15c.26,0,.87-.07,1.84-.07.58,0,1,0,1.42.05l.57,0a1.45,1.45,0,0,0,1.29-.62,1.8,1.8,0,0,0,.38-.93c0-.21-.1-.28-.19-.28s-.2.09-.29.22a1.56,1.56,0,0,1-.43.42A4.41,4.41,0,0,1,88,7.57c-.7,0-.84-.1-.84-.62V4.65c0-.27,0-.28.25-.28h1.06c.63,0,.89.1,1,.37a.88.88,0,0,1,.06.26c0,.16,0,.35.27.35s.25-.12.25-.33a.72.72,0,0,0,0-.13,3.88,3.88,0,0,1,0-.64c0-.36,0-.65,0-.81s0-.18,0-.23c0-.33-.19-.34-.23-.34s-.22.15-.26.29a.77.77,0,0,1-.11.27c-.18.27-.49.32-1,.32h-.93c-.29,0-.29,0-.29-.34V1.09c0-.31.11-.36.78-.36h.79c1,0,1.28.15,1.28.65v0a.25.25,0,0,0,0,.08c0,.19.09.3.24.3s.22-.21.23-.32l.08-.93V.47a.17.17,0,0,0,0-.07c0-.27-.12-.32-.32-.32H90c-.4,0-1.22.08-2.44.08-1,0-1.64,0-1.92-.06h-.15c-.16,0-.31,0-.31.27S85.33.6,85.46.63Z"/><path class="cls-1" d="M91.87.63a.71.71,0,0,1,.36.14c.27.2.29.44.29.94V6.59c0,.45,0,.69-.26.92a1,1,0,0,1-.35.19c-.15.06-.3.12-.3.3a.24.24,0,0,0,.27.24H92a10.54,10.54,0,0,1,1.13-.05c.37,0,.66,0,.9,0l.36,0c.14,0,.31,0,.31-.25s-.19-.23-.35-.26a1,1,0,0,1-.43-.14c-.31-.21-.34-.48-.34-1V4.78c0-.26.06-.31.45-.31.56,0,.77,0,1,.42l1.18,1.86c.56.9,1,1.49,2,1.49.37,0,.72,0,.72-.29s-.15-.2-.28-.23a.86.86,0,0,1-.28-.08,4.13,4.13,0,0,1-1.19-1.41l-1.38-2.1a2.22,2.22,0,0,0,1.37-2c0-1.25-.93-2-2.5-2-.47,0-.86,0-1.18,0L93,.18c-.34,0-.61,0-.82,0l-.28,0c-.11,0-.3,0-.3.26S91.74.6,91.87.63ZM94.11.7c1.27,0,2,.64,2,1.73s-.55,1.48-1.91,1.48h-.11c-.49,0-.53,0-.53-.16V1C93.59.76,93.64.7,94.11.7Z"/><path class="cls-1" d="M99.16,7.49c.09.48,1,.84,2.07.84,1.77,0,2.87-.94,2.87-2.45a2.31,2.31,0,0,0-.75-1.82,5.06,5.06,0,0,0-1.85-.83c-1-.32-1.59-.55-1.59-1.4a1.41,1.41,0,0,1,1.57-1.3,1.85,1.85,0,0,1,1.7,1,2.18,2.18,0,0,1,.18.4c.06.17.12.32.31.32s.23-.09.23-.25a.92.92,0,0,0,0-.16L103.73.47c0-.15-.08-.24-.17-.24a.28.28,0,0,0-.15.06.31.31,0,0,1-.16.06l-.2-.07A3.46,3.46,0,0,0,101.71,0a2.29,2.29,0,0,0-2.58,2.16c0,1.38.88,1.91,2.39,2.36,1.23.35,1.81.68,1.81,1.6a1.6,1.6,0,0,1-1.79,1.62,2,2,0,0,1-1.88-1.09,4.3,4.3,0,0,1-.21-.51c-.09-.25-.15-.41-.34-.41s-.23,0-.23.28a.64.64,0,0,0,0,.22Z"/><path class="cls-1" d="M105.18.63a.75.75,0,0,1,.36.14c.28.2.3.44.3.94V6.59c0,.45,0,.69-.27.92a1,1,0,0,1-.34.19c-.15.06-.3.12-.3.3a.24.24,0,0,0,.27.24h.15a9.69,9.69,0,0,1,1-.05c.24,0,.46,0,.68,0l.54,0c.12,0,.33,0,.33-.25s-.18-.24-.33-.27v0a.91.91,0,0,1-.38-.13c-.26-.2-.31-.47-.31-1V1.71c0-.46,0-.7.23-.9a.8.8,0,0,1,.35-.16c.16-.05.34-.1.34-.3a.25.25,0,0,0-.28-.24h-.12a9.65,9.65,0,0,1-1.13.06,8.26,8.26,0,0,1-.85,0l-.28,0c-.09,0-.32,0-.32.24S105,.6,105.18.63Z"/><path class="cls-1" d="M108.44,2c.19,0,.24-.18.29-.35a1.12,1.12,0,0,1,.08-.26c.19-.43.39-.59.76-.59h1.57c.2,0,.22,0,.22.19V6.69c0,.59,0,.79-.35.94a.94.94,0,0,1-.32.08c-.19,0-.4.07-.4.3s.12.26.31.26l.3,0a6.61,6.61,0,0,1,.95-.08c.29,0,.55,0,.79.05l.49,0c.3,0,.35-.16.35-.26s-.16-.23-.32-.26a1.41,1.41,0,0,1-.36-.11c-.36-.16-.37-.33-.37-.87V1c0-.17,0-.2.25-.2h1.47a.89.89,0,0,1,.83.41.77.77,0,0,1,.07.26c0,.14.06.32.26.32s.23-.05.23-.31V1.42l-.08-1c0-.18-.12-.28-.33-.28l-.38,0c-.26,0-.62,0-1.06,0h-3.52c-.4,0-.71,0-1,0l-.37,0c-.28,0-.44,0-.47.32l-.12,1.14a.87.87,0,0,0,0,.2C108.23,1.83,108.23,2,108.44,2Z"/><path class="cls-1" d="M115.81.63a.58.58,0,0,1,.18,0,1.33,1.33,0,0,1,.59.64l1.75,2.81a1.08,1.08,0,0,1,.15.63V6.59c0,.49,0,.74-.25,1a.89.89,0,0,1-.33.15c-.16.06-.34.12-.34.31s.11.24.28.24H118a9.86,9.86,0,0,1,1-.05c.23,0,.43,0,.64,0l.48,0c.14,0,.31,0,.31-.25s-.18-.23-.31-.26a.69.69,0,0,1-.33-.13c-.25-.2-.27-.48-.27-1V4.54a1,1,0,0,1,.2-.62l1.42-2.16a7.77,7.77,0,0,1,.76-1,.61.61,0,0,1,.14-.07c.1,0,.25-.09.25-.29a.22.22,0,0,0-.24-.24l-.15,0c-.16,0-.42,0-.81,0-.22,0-.42,0-.58,0l-.3,0c-.24,0-.29.13-.29.24s.2.26.34.27l.23,0a.34.34,0,0,1,.27.32,1.39,1.39,0,0,1-.26.64l-1.23,1.94,0,0s0,0,0-.06l-1.43-2.27a.77.77,0,0,1-.15-.42c0-.12,0-.17.18-.22l.07,0a.23.23,0,0,0,.21-.26.22.22,0,0,0-.25-.23l-.17,0c-.16,0-.42,0-.77,0a8.09,8.09,0,0,1-.82,0l-.25,0c-.2,0-.3.09-.3.26S115.7.61,115.81.63Z"/><path class="cls-1" d="M37,3.21c.2,0,.25-.18.29-.33s0-.13.07-.2c.14-.32.28-.44.55-.44h1.27c.12,0,.12,0,.12.09V6.94c0,.47,0,.59-.25.7a.94.94,0,0,1-.24.06c-.15,0-.38.06-.38.31a.28.28,0,0,0,.31.27l.26,0a6,6,0,0,1,.76-.06,5.9,5.9,0,0,1,.63,0l.41,0c.32,0,.34-.22.34-.28,0-.21-.18-.25-.3-.27a1.48,1.48,0,0,1-.28-.09c-.26-.11-.27-.21-.27-.65V2.34c0-.1,0-.1.14-.1h1.19a.67.67,0,0,1,.62.3.67.67,0,0,1,0,.19c0,.11.05.32.27.32A.25.25,0,0,0,42.74,3a.37.37,0,0,0,.08-.26l-.06-.9a.29.29,0,0,0-.33-.29l-.32,0c-.21,0-.5,0-.85,0H38.41c-.32,0-.57,0-.78,0l-.3,0c-.2,0-.41,0-.44.32l-.1.92a1.16,1.16,0,0,0,0,.17C36.78,3.18,36.92,3.21,37,3.21Z"/><path class="cls-1" d="M43.23,2.09a.56.56,0,0,1,.29.1c.21.15.23.31.23.71v4c0,.36,0,.53-.2.69a1,1,0,0,1-.26.15c-.12,0-.28.11-.28.3a.26.26,0,0,0,.28.26h.13a6.07,6.07,0,0,1,.82-.05c.19,0,.37,0,.54,0l.45,0c.09,0,.33,0,.33-.27s-.2-.26-.32-.28a.68.68,0,0,1-.27-.1c-.2-.15-.24-.36-.24-.75V5H48V6.86c0,.36,0,.53-.2.69a.87.87,0,0,1-.26.15c-.12,0-.28.11-.28.3a.26.26,0,0,0,.28.26h.12a6.32,6.32,0,0,1,.84-.05c.18,0,.36,0,.53,0l.45,0c.09,0,.34,0,.34-.27s-.2-.26-.32-.28h0a.73.73,0,0,1-.28-.1C49,7.46,49,7.25,49,6.86v-4c0-.36,0-.54.17-.68a.73.73,0,0,1,.26-.11c.13,0,.31-.09.31-.3a.27.27,0,0,0-.28-.26h-.12a5.76,5.76,0,0,1-.81.05,5.9,5.9,0,0,1-.63,0l-.38,0c-.09,0-.33,0-.33.27s.19.25.31.27a.69.69,0,0,1,.29.11c.21.15.23.31.23.71V4.38H44.74a.17.17,0,0,1,0-.08V2.9c0-.36,0-.54.17-.68a.88.88,0,0,1,.26-.12c.13,0,.31-.09.31-.3a.27.27,0,0,0-.28-.26h-.11a6.82,6.82,0,0,1-.9.05,5.54,5.54,0,0,1-.66,0l-.27,0c-.08,0-.33,0-.33.28S43.11,2.07,43.23,2.09Z"/><path class="cls-1" d="M50.26,2.09a.53.53,0,0,1,.27.1c.19.15.21.32.21.71v4a.93.93,0,0,1-.17.7.6.6,0,0,1-.21.13c-.11,0-.26.12-.26.32a.25.25,0,0,0,.24.25h.13c.21,0,.7-.06,1.49-.06.46,0,.85,0,1.16,0l.44,0a1.23,1.23,0,0,0,1.1-.53A1.54,1.54,0,0,0,55,6.93c0-.2-.11-.3-.22-.3s-.2.1-.28.21a1.45,1.45,0,0,1-.33.33,3.61,3.61,0,0,1-1.81.41c-.55,0-.61-.08-.61-.43V5.28c0-.16,0-.16.13-.16h.86c.48,0,.68.07.75.26a1.18,1.18,0,0,1,0,.2c0,.12.05.34.28.34a.31.31,0,0,0,.27-.33.62.62,0,0,0,0-.12A4,4,0,0,1,54,5c0-.29,0-.51,0-.66a1.42,1.42,0,0,0,0-.19c0-.33-.22-.34-.25-.34-.19,0-.24.17-.27.29a.77.77,0,0,1-.08.19c-.14.2-.37.24-.8.24H51.9c-.17,0-.17,0-.17-.21V2.4c0-.17,0-.23.56-.23h.64c.91,0,1,.18,1,.46v.1c0,.23.14.31.26.31s.24-.23.25-.32L54.47,2a.09.09,0,0,1,0-.05V1.84c0-.29-.17-.32-.32-.32h-.24c-.32,0-1,.07-2,.07s-1.34,0-1.56-.05h-.13a.27.27,0,0,0-.31.28C50,2,50.15,2.07,50.26,2.09Z"/><path class="cls-1" d="M126.91,8.4a3.33,3.33,0,0,0,2.58-1.18,3.59,3.59,0,0,0,.85-2.38,3.44,3.44,0,0,0-.93-2.42,3.55,3.55,0,0,0-5,0,3.54,3.54,0,0,0-1,2.48A3.29,3.29,0,0,0,126.91,8.4ZM126.8,2a2.21,2.21,0,0,1,1.91,1,3.82,3.82,0,0,1,.66,2.08c0,1.66-.92,2.68-2.4,2.68a2.2,2.2,0,0,1-2-1.17,3.83,3.83,0,0,1-.58-2A2.35,2.35,0,0,1,126.8,2Z"/><path class="cls-1" d="M130.6,2.09a.56.56,0,0,1,.27.1c.19.15.21.32.21.71v4a1,1,0,0,1-.16.71.86.86,0,0,1-.2.13.32.32,0,0,0-.25.29.26.26,0,0,0,.27.27h.11a4.48,4.48,0,0,1,.7-.05c.2,0,.4,0,.57,0v0h0v.05l.43,0c.09,0,.33,0,.33-.27s-.2-.26-.32-.28a.63.63,0,0,1-.28-.1c-.19-.14-.22-.34-.22-.74V5.29c0-.16,0-.16.12-.16h.87c.48,0,.67.06.74.25a.65.65,0,0,1,.05.2c0,.13,0,.34.28.34a.3.3,0,0,0,.27-.33,1.25,1.25,0,0,0,0-.15,2.34,2.34,0,0,1,0-.46c0-.21,0-.41,0-.55v0c0-.1,0-.2,0-.28s0-.36-.23-.36-.26.19-.29.31a.58.58,0,0,1-.08.18c-.13.19-.36.23-.79.23h-.75c-.17,0-.17,0-.17-.21V2.4c0-.17,0-.23.56-.23h.64c.91,0,1,.19,1,.47v0s0,0,0,.08c0,.29.21.3.25.3s.25-.11.26-.32l.07-.76V1.9s0,0,0-.07c0-.21-.1-.31-.3-.31l-.45,0c-.34,0-.81.06-1.42.06h-.43c-.78,0-1.27,0-1.48-.05h-.13c-.08,0-.31,0-.31.27S130.49,2.07,130.6,2.09Z"/><path class="cls-1" d="M137.53,2c.2,0,.24-.18.29-.36a1.44,1.44,0,0,1,.08-.25c.19-.43.39-.59.76-.59h1.57c.2,0,.22,0,.22.19V6.69c0,.59,0,.79-.35.94a.94.94,0,0,1-.32.08c-.19,0-.4.07-.4.3s.12.26.31.26l.3,0a6.61,6.61,0,0,1,.95-.08c.29,0,.55,0,.79.05l.49,0c.3,0,.35-.16.35-.26s-.16-.23-.31-.26a1.35,1.35,0,0,1-.37-.11c-.36-.16-.37-.33-.37-.87V1c0-.17,0-.2.25-.2h1.47a.89.89,0,0,1,.83.41.77.77,0,0,1,.07.26c0,.14.06.32.26.32s.23-.05.23-.31V1.42l-.08-1c0-.18-.12-.28-.33-.28l-.38,0c-.26,0-.62,0-1.06,0h-3.52c-.39,0-.71,0-1,0l-.37,0c-.28,0-.44,0-.47.32l-.12,1.14a1.72,1.72,0,0,0,0,.2C137.33,1.83,137.33,2,137.53,2Z"/><path class="cls-1" d="M145.21.63a.71.71,0,0,1,.36.14c.27.2.29.44.29.94V6.59c0,.43,0,.7-.23.93a.88.88,0,0,1-.28.18c-.13.06-.28.12-.28.31a.24.24,0,0,0,.22.23h.16c.26,0,.87-.07,1.84-.07.58,0,1,0,1.42.05l.56,0a1.45,1.45,0,0,0,1.3-.62,1.89,1.89,0,0,0,.38-.93c0-.21-.11-.28-.2-.28s-.19.09-.28.22A1.56,1.56,0,0,1,150,7a4.46,4.46,0,0,1-2.28.53c-.69,0-.83-.1-.83-.62V4.65c0-.27,0-.28.25-.28h1.06c.63,0,.89.1,1,.37a1.38,1.38,0,0,1,.06.26c0,.16.05.35.27.35s.25-.12.25-.33c0,0,0-.07,0-.13a3.88,3.88,0,0,1-.05-.64c0-.35,0-.63,0-.81s0-.18,0-.23c0-.33-.19-.34-.23-.34s-.22.15-.26.29a1.53,1.53,0,0,1-.11.27c-.19.27-.49.32-1,.32h-.93c-.29,0-.29,0-.29-.34V1.09c0-.31.11-.36.78-.36h.79c1,0,1.28.15,1.28.65a.06.06,0,0,1,0,0V1.5c0,.19.09.3.24.3s.22-.21.23-.32l.08-.93V.47s0,0,0-.07c0-.27-.13-.32-.32-.32h-.28c-.4,0-1.22.08-2.44.08-1,0-1.64,0-1.92-.06h-.16c-.15,0-.31,0-.31.27S145.07.6,145.21.63Z"/><path class="cls-1" d="M151.32.64a1.12,1.12,0,0,1,.52.28,2.45,2.45,0,0,1,.45,1.8c0,.18,0,.37,0,.57l-.09,2.94v0c0,.78,0,1.1-.44,1.35a.84.84,0,0,1-.23.09c-.14,0-.3.09-.3.3s0,.22.24.22l.21,0a2.87,2.87,0,0,1,.48,0c.35,0,.64,0,.88,0l.41,0c.12,0,.35,0,.35-.25s-.18-.22-.3-.23a.77.77,0,0,1-.29-.07c-.34-.17-.4-.38-.4-.91V6.57c0-.07,0-.15,0-.23l.1-4,0,0L158,8.12c.11.13.19.18.27.18.23,0,.23-.23.23-.39V1.71a1.34,1.34,0,0,1,.28-1,.44.44,0,0,1,.19-.1c.1,0,.23-.07.23-.26s-.12-.23-.3-.23l-.29,0a5.38,5.38,0,0,1-.81.06,3.61,3.61,0,0,1-.68-.06l-.23,0a.23.23,0,0,0-.22.24c0,.19.17.23.36.27a1.59,1.59,0,0,1,.49.19c.31.19.37.71.37,1.64V6.34l-5.38-6a.44.44,0,0,0-.42-.17h-.3l-.35,0h-.14c-.08,0-.29,0-.29.23S151.16.6,151.32.64Z"/><path class="cls-1" d="M159.88.64a1.12,1.12,0,0,1,.52.28,2.45,2.45,0,0,1,.45,1.8c0,.18,0,.37,0,.57l-.09,2.94v0c0,.76,0,1.1-.44,1.35a.84.84,0,0,1-.23.09c-.14,0-.3.09-.3.3s0,.22.24.22l.21,0a3.08,3.08,0,0,1,.48,0c.35,0,.64,0,.88,0l.41,0c.12,0,.35,0,.35-.25s-.17-.22-.3-.23a.82.82,0,0,1-.29-.07c-.34-.17-.4-.38-.4-.91V6.57a1.69,1.69,0,0,0,0-.23l.1-4,0,0,5.05,5.72c.11.13.19.18.28.18s.22-.23.22-.39V1.71a1.34,1.34,0,0,1,.28-1,.44.44,0,0,1,.19-.1c.1,0,.23-.07.23-.26s-.12-.23-.3-.23l-.29,0a5.38,5.38,0,0,1-.81.06,3.61,3.61,0,0,1-.68-.06l-.23,0a.23.23,0,0,0-.22.24c0,.19.18.23.36.27a1.74,1.74,0,0,1,.5.19c.3.19.36.71.36,1.64V6.34l-5.38-6a.44.44,0,0,0-.42-.17h-.3l-.35,0h-.14c-.08,0-.29,0-.29.23S159.72.6,159.88.64Z"/><path class="cls-1" d="M168.67.63a.71.71,0,0,1,.36.14c.27.2.29.44.29.94V6.59c0,.43,0,.7-.23.93a.74.74,0,0,1-.28.18c-.13.06-.28.12-.28.31a.24.24,0,0,0,.22.23h.16c.26,0,.87-.07,1.84-.07.58,0,1,0,1.42.05l.56,0a1.45,1.45,0,0,0,1.3-.62,1.8,1.8,0,0,0,.38-.93c0-.21-.11-.28-.2-.28s-.19.09-.28.22a1.56,1.56,0,0,1-.43.42,4.46,4.46,0,0,1-2.28.53c-.69,0-.83-.1-.83-.62V4.65c0-.27,0-.28.25-.28h1.06c.63,0,.89.1,1,.37a1.38,1.38,0,0,1,.06.26c0,.16.05.35.27.35s.25-.12.25-.33c0,0,0-.07,0-.13a3.88,3.88,0,0,1,0-.64c0-.35,0-.63,0-.81s0-.18,0-.23c0-.33-.19-.34-.23-.34s-.22.15-.26.29a1.53,1.53,0,0,1-.11.27c-.19.27-.49.32-1,.32h-.93c-.29,0-.29,0-.29-.34V1.09c0-.31.11-.36.78-.36H172c1,0,1.28.15,1.28.65a.06.06,0,0,1,0,0V1.5c0,.19.09.3.24.3s.22-.21.23-.32l.08-.93V.47s0,0,0-.07c0-.27-.12-.32-.32-.32l-.28,0c-.4,0-1.22.08-2.44.08-1,0-1.64,0-1.92-.06h-.16c-.15,0-.3,0-.3.27S168.53.6,168.67.63Z"/><path class="cls-1" d="M175.08,7.49c.09.48,1,.84,2.08.84,1.77,0,2.86-.94,2.86-2.45a2.28,2.28,0,0,0-.75-1.82,5.06,5.06,0,0,0-1.85-.83v0h0c-1-.32-1.59-.55-1.59-1.4A1.41,1.41,0,0,1,177.4.53a1.84,1.84,0,0,1,1.7,1,2.18,2.18,0,0,1,.18.4c.06.17.12.32.31.32s.23-.09.23-.25a.92.92,0,0,0,0-.16L179.65.47c0-.15-.08-.24-.17-.24a.28.28,0,0,0-.15.06.32.32,0,0,1-.15.06A1.25,1.25,0,0,1,179,.28,3.51,3.51,0,0,0,177.63,0a2.29,2.29,0,0,0-2.58,2.16c0,1.38.88,1.91,2.39,2.36,1.23.35,1.81.68,1.81,1.6a1.6,1.6,0,0,1-1.79,1.62,2,2,0,0,1-1.88-1.09,4.3,4.3,0,0,1-.21-.51c-.09-.25-.15-.41-.34-.41s-.22,0-.22.28a.94.94,0,0,0,0,.22Z"/><path class="cls-1" d="M181.06,7.49c.09.48,1,.84,2.07.84,1.77,0,2.87-.94,2.87-2.45a2.31,2.31,0,0,0-.75-1.82,5.06,5.06,0,0,0-1.85-.83c-1-.32-1.59-.55-1.59-1.4a1.41,1.41,0,0,1,1.57-1.3,1.82,1.82,0,0,1,1.69,1,1.75,1.75,0,0,1,.19.4c.06.17.12.32.31.32s.23-.09.23-.25a.92.92,0,0,0,0-.16L185.63.47c0-.15-.08-.24-.17-.24a.28.28,0,0,0-.15.06.35.35,0,0,1-.16.06.79.79,0,0,1-.2-.07A3.51,3.51,0,0,0,183.61,0,2.29,2.29,0,0,0,181,2.16c0,1.38.88,1.91,2.39,2.36,1.23.35,1.81.68,1.81,1.6a1.6,1.6,0,0,1-1.79,1.62,2,2,0,0,1-1.88-1.09c-.1-.2-.16-.37-.22-.51s-.14-.41-.33-.41-.23,0-.23.28a.64.64,0,0,0,0,.22Z"/><path class="cls-1" d="M187,.63a.74.74,0,0,1,.37.14c.26.2.29.44.29.94V6.59c0,.43,0,.7-.23.93a.85.85,0,0,1-.29.18c-.13.06-.27.12-.27.31a.24.24,0,0,0,.22.23h.15c.26,0,.87-.07,1.84-.07.58,0,1.05,0,1.42.05l.57,0a1.43,1.43,0,0,0,1.29-.62,1.8,1.8,0,0,0,.38-.93c0-.21-.1-.28-.19-.28s-.19.09-.29.22a1.43,1.43,0,0,1-.43.42,4.41,4.41,0,0,1-2.27.53c-.69,0-.83-.1-.83-.62V4.65c0-.27,0-.28.24-.28H190c.63,0,.89.1,1,.37A1.32,1.32,0,0,1,191,5c0,.16.05.35.27.35s.25-.12.25-.33a.72.72,0,0,0,0-.13,4.21,4.21,0,0,1,0-.64c0-.35,0-.63,0-.81a2.3,2.3,0,0,0,0-.23c0-.33-.19-.34-.23-.34s-.22.15-.26.29a.77.77,0,0,1-.11.27c-.18.27-.48.32-1,.32H189c-.29,0-.29,0-.29-.34V1.09c0-.31.1-.36.77-.36h.79c1,0,1.28.15,1.28.65v0s0,.06,0,.08c0,.19.09.3.24.3s.22-.2.23-.32l.08-.93a.22.22,0,0,1,0-.08V.4c0-.27-.12-.32-.32-.32l-.28,0c-.39,0-1.22.08-2.44.08-1,0-1.64,0-1.92-.06H187c-.15,0-.31,0-.31.27S186.83.6,187,.63Z"/><path class="cls-1" d="M193.3.63a.74.74,0,0,1,.37.14c.26.2.29.44.29.94V6.59c0,.43,0,.7-.24.93a.74.74,0,0,1-.28.18c-.13.06-.27.12-.27.31a.24.24,0,0,0,.22.23h.15c.26,0,.88-.07,1.84-.07.58,0,1.05,0,1.42.05l.57,0a1.45,1.45,0,0,0,1.29-.62,1.8,1.8,0,0,0,.38-.93c0-.21-.1-.28-.19-.28s-.2.09-.29.22a1.43,1.43,0,0,1-.43.42,4.41,4.41,0,0,1-2.27.53c-.7,0-.84-.1-.84-.62V4.65c0-.27,0-.28.25-.28h1.06c.63,0,.89.1,1,.37a1.32,1.32,0,0,1,0,.26c0,.15.05.35.27.35s.25-.12.25-.33a.72.72,0,0,0,0-.13,4.21,4.21,0,0,1,0-.64c0-.35,0-.63,0-.81a2.3,2.3,0,0,0,0-.23c0-.33-.19-.34-.23-.34s-.22.15-.26.29a.77.77,0,0,1-.11.27c-.18.27-.49.32-1,.32h-.93c-.29,0-.29,0-.29-.34V1.09c0-.31.11-.36.78-.36h.79c1,0,1.28.15,1.28.65v0a.25.25,0,0,0,0,.08c0,.19.09.3.24.3s.22-.2.23-.32l.08-.93V.47a.17.17,0,0,0,0-.07c0-.27-.12-.32-.32-.32h-.28c-.39,0-1.22.08-2.44.08-1,0-1.64,0-1.92-.06h-.15c-.16,0-.31,0-.31.27S193.17.6,193.3.63Z"/><path class="cls-1" d="M36.86,11.06a.29.29,0,0,0,.28.29H199.48a.29.29,0,0,0,0-.58H37.14A.29.29,0,0,0,36.86,11.06Z"/></g></g></svg>